{"glyphs":{"0":{"ha":563,"x_min":0,"x_max":495,"o":"m 247 7 q 163 28 205 7 q 52 136 96 61 q 0 365 0 227 q 4 442 0 401 q 159 761 25 663 q 259 793 203 793 q 376 753 319 793 l 376 752 q 473 603 443 701 q 495 441 495 530 q 465 240 495 339 q 417 126 446 176 q 247 7 348 7 m 254 111 q 278 123 264 111 q 325 199 303 149 q 370 439 370 305 q 340 610 370 542 q 297 670 323 648 q 279 675 288 675 q 224 634 255 675 q 164 493 184 578 q 153 387 153 443 q 159 298 153 342 q 207 150 172 205 q 254 111 231 111 z "},"1":{"ha":258,"x_min":16,"x_max":205,"o":"m 100 -7 q 33 30 54 -7 q 16 208 16 61 q 50 671 16 420 q 40 706 40 688 q 66 758 40 740 l 108 787 q 147 803 125 803 q 174 796 160 803 q 205 740 205 779 q 167 120 167 313 l 167 75 q 145 16 167 39 q 100 -7 126 -5 z "},"2":{"ha":488,"x_min":0,"x_max":420,"o":"m 245 -6 q 0 103 0 -6 q 54 201 0 149 q 234 460 169 312 q 279 631 279 563 q 244 699 279 692 l 224 701 q 144 670 170 701 q 113 559 113 633 l 114 542 q 104 511 114 524 q 66 492 90 492 q 47 496 58 492 q 28 512 37 500 q 20 537 20 523 l 19 559 q 72 732 19 669 q 161 787 104 771 q 225 795 189 795 q 393 713 345 795 q 420 602 420 667 q 410 524 420 565 q 208 128 363 317 q 183 93 192 110 q 229 91 204 91 l 262 92 l 262 91 q 345 94 302 91 q 378 83 364 94 q 395 47 395 69 q 383 15 395 29 q 351 -1 372 1 q 245 -6 293 -6 z "},"3":{"ha":542,"x_min":0,"x_max":474,"o":"m 230 -17 q 153 -6 190 -17 q 86 25 117 5 q 35 73 56 45 q 0 178 0 120 q 13 225 0 210 q 46 239 26 239 q 70 234 55 239 q 91 216 84 229 q 98 191 98 204 l 98 178 q 146 101 98 130 q 199 87 174 87 q 258 108 231 87 q 302 161 285 129 q 330 260 330 211 q 304 340 330 306 q 225 382 271 382 q 201 378 214 382 q 178 374 189 374 q 120 410 139 374 q 114 439 114 425 q 121 469 114 454 q 161 499 134 493 q 261 568 225 513 q 292 663 292 614 q 282 701 292 693 q 256 705 272 705 q 184 680 213 705 q 156 635 163 662 q 105 598 147 598 q 79 605 91 598 q 58 642 58 618 l 60 650 q 119 751 73 711 q 256 800 176 800 q 395 731 349 800 q 422 632 422 690 q 357 469 422 539 q 422 415 395 448 q 474 256 474 351 q 461 169 474 212 q 385 41 439 92 q 230 -17 321 -17 z "},"4":{"ha":563,"x_min":0,"x_max":495,"o":"m 386 -2 l 380 -2 q 348 8 362 -1 q 326 33 334 17 q 315 71 317 50 q 312 182 312 125 q 313 244 312 213 l 53 235 q 10 257 25 235 q 0 290 0 272 q 121 701 0 298 q 130 734 124 718 q 199 785 146 785 q 255 756 235 785 q 267 715 267 737 q 264 691 267 703 l 153 334 l 317 340 q 351 672 328 515 q 402 780 362 749 q 441 797 420 797 q 487 770 471 797 q 495 741 495 757 l 495 734 q 475 539 487 666 q 449 94 449 236 l 450 77 q 428 17 450 40 q 386 -2 410 -2 z "},"5":{"ha":519,"x_min":0,"x_max":451,"o":"m 193 -1 q 126 9 160 -1 q 22 98 56 31 q 0 171 0 142 q 5 192 0 181 q 22 210 10 203 q 48 218 34 218 q 81 205 68 217 q 96 176 94 193 l 101 161 q 187 96 142 96 q 231 113 209 96 q 297 204 274 142 q 311 279 311 241 q 309 307 311 290 q 297 348 307 324 q 267 391 287 372 q 200 418 238 418 q 153 409 177 418 q 98 378 130 400 q 65 368 83 368 q 37 375 51 368 q 15 397 22 383 q 8 425 8 410 l 22 723 q 34 762 23 745 q 64 790 45 780 q 104 800 82 800 l 308 797 q 342 782 329 795 q 357 749 356 769 q 342 714 356 728 q 308 700 329 701 l 169 698 l 158 515 q 239 530 201 530 q 282 526 252 530 q 353 492 313 522 q 426 402 400 456 q 451 288 451 348 q 363 75 450 170 q 286 19 330 38 q 193 -1 241 -1 z "},"6":{"ha":515,"x_min":0,"x_max":448,"o":"m 213 -8 q 100 22 150 -8 q 33 93 60 47 q 0 235 0 150 q 1 266 0 239 q 16 356 1 292 q 147 677 52 509 q 194 758 172 720 q 258 803 212 803 q 315 791 297 803 q 342 739 342 772 q 325 686 342 715 q 214 478 260 581 l 216 479 l 216 479 l 239 479 q 347 450 294 479 q 395 407 374 434 q 448 243 448 339 q 356 42 448 121 q 213 -8 296 -8 m 231 98 q 296 163 275 109 q 310 243 310 199 q 286 341 310 300 q 237 375 267 371 q 163 340 197 374 q 144 237 144 281 q 148 192 144 224 q 179 126 151 160 q 229 98 203 98 l 231 98 z "},"7":{"ha":435,"x_min":0,"x_max":367,"o":"m 92 -6 l 70 -5 q 19 21 37 -5 q 9 55 9 37 q 19 100 9 76 q 58 189 33 134 q 226 666 226 568 q 224 683 226 676 l 212 683 q 56 673 148 683 l 52 673 q 18 685 33 673 q 0 726 0 700 q 20 767 0 751 q 45 778 31 776 q 202 788 138 788 q 329 765 298 788 q 367 669 367 736 q 348 547 367 622 q 167 62 311 397 l 153 32 q 92 -6 135 -6 z "},"8":{"ha":453,"x_min":0,"x_max":385,"o":"m 196 -8 q 116 18 152 -8 q 39 82 68 41 q 0 218 0 137 q 5 277 0 243 q 26 350 11 312 q 61 417 41 389 q 11 576 11 493 q 69 756 11 699 q 195 802 117 802 l 218 802 q 294 782 260 801 q 385 593 385 733 q 381 521 385 580 q 325 313 378 462 q 378 176 378 257 q 377 147 378 170 q 357 85 376 123 q 331 47 347 65 q 293 17 315 30 q 243 0 271 5 q 196 -8 219 -8 m 212 399 q 279 597 279 513 q 257 675 279 646 q 193 707 232 705 q 165 690 178 705 q 131 591 131 652 q 212 399 131 511 m 205 90 q 250 117 237 90 q 260 170 260 140 q 255 212 260 190 q 239 253 250 234 q 216 281 229 271 q 148 328 185 300 q 134 294 140 316 q 124 223 124 261 q 144 125 124 169 q 163 96 154 106 q 205 90 187 90 z "},"9":{"ha":515,"x_min":0,"x_max":448,"o":"m 190 -22 q 132 -9 151 -22 q 105 42 105 9 q 123 96 105 66 q 233 303 186 200 l 231 303 l 231 302 l 213 301 q 100 332 154 302 q 53 374 74 347 q 0 538 0 442 q 92 739 0 661 q 235 790 152 790 q 279 786 249 790 q 348 759 309 783 q 414 688 387 734 q 448 547 448 632 q 447 516 448 543 q 432 425 446 489 q 300 104 396 273 l 252 21 q 190 -22 233 -22 m 218 406 q 300 441 262 407 q 320 545 320 499 q 316 590 320 557 q 282 655 313 622 q 227 684 256 684 l 224 683 q 153 618 177 673 q 138 539 138 582 q 165 441 138 481 q 218 406 184 411 z "}," ":{"ha":345,"x_min":0,"x_max":0,"o":""},"!":{"ha":278,"x_min":0,"x_max":163,"o":"m 97 150 q 91 151 94 150 l 77 150 l 75 151 q 20 174 40 153 q 0 224 0 194 l 7 773 q 25 812 7 796 q 66 823 39 822 q 95 821 79 823 q 144 771 144 814 l 160 213 q 140 165 160 184 q 97 150 121 150 m 79 -68 q 28 -49 50 -68 q 4 9 4 -26 q 58 76 4 52 q 90 82 75 82 q 136 67 114 82 q 163 16 163 46 l 163 12 q 115 -62 158 -46 q 79 -68 95 -68 z "},"\"":{"ha":371,"x_min":0,"x_max":256,"o":"m 55 696 q 11 711 28 696 q 0 732 0 720 l 5 890 q 59 922 7 922 q 92 911 79 922 q 102 889 101 902 l 115 730 q 67 696 115 703 l 55 696 m 195 696 q 151 711 169 696 q 140 733 140 720 l 146 890 q 199 922 147 922 q 232 911 219 922 q 243 889 241 902 l 256 730 q 208 696 256 703 l 195 696 z "},"#":{"ha":711,"x_min":0,"x_max":596,"o":"m 440 -1 l 418 -1 q 363 24 383 3 q 343 78 343 46 l 342 201 l 245 205 l 247 96 q 225 46 247 64 q 184 31 208 31 q 176 32 180 31 l 160 33 q 106 58 126 37 q 87 111 87 79 l 89 208 l 50 208 q 15 222 28 208 q 0 258 1 236 q 14 293 0 279 q 50 308 28 308 l 91 308 l 93 401 q 48 401 68 401 q 15 416 28 401 q 0 451 1 430 q 14 487 0 473 q 50 502 28 501 l 95 502 l 100 723 q 120 763 100 747 q 165 778 139 778 l 178 777 q 237 718 237 762 l 241 500 q 342 498 289 499 l 342 721 q 361 763 342 746 q 405 777 380 777 q 420 776 413 777 l 420 776 q 479 719 479 762 l 488 494 l 548 492 q 583 476 570 490 q 596 441 596 461 q 580 404 596 419 q 546 391 566 391 l 491 393 l 494 295 l 530 293 q 564 276 551 291 q 576 241 576 260 q 559 204 576 219 q 527 193 545 193 l 498 194 l 503 65 q 482 14 503 28 q 440 -1 465 -1 m 342 302 l 342 397 l 242 399 l 243 305 l 342 302 z "},"$":{"ha":407,"x_min":0,"x_max":407,"o":"m 210 -90 q 171 -74 187 -90 q 154 -35 154 -58 l 154 14 q 57 59 98 22 q 0 214 0 114 q 27 278 0 260 q 56 287 41 287 q 80 282 68 287 l 81 281 q 115 224 115 263 l 115 218 q 119 179 115 198 q 182 134 130 134 q 246 151 216 134 l 248 153 q 263 191 263 173 q 180 317 263 243 q 28 597 28 452 q 33 652 28 625 q 154 788 58 757 l 154 861 q 171 900 154 884 q 210 916 187 916 q 249 900 233 916 q 265 861 265 884 l 265 786 q 343 711 311 768 q 370 608 368 667 q 346 561 369 577 q 314 550 332 550 q 294 553 304 550 q 254 608 257 567 q 222 673 250 654 q 205 678 213 678 q 178 661 191 678 q 160 616 160 640 q 167 590 160 604 q 277 452 203 525 q 351 372 311 417 q 407 231 407 305 q 380 124 407 179 q 265 28 343 58 l 265 -35 q 249 -74 265 -58 q 210 -90 233 -90 z "},"%":{"ha":617,"x_min":0,"x_max":503,"o":"m 125 -11 q 90 0 104 -11 l 77 7 q 43 77 43 33 q 52 120 43 98 l 309 812 q 370 855 325 855 q 415 836 395 855 q 441 780 441 808 q 437 755 441 766 l 190 42 q 125 -11 169 -11 m 393 24 q 319 60 351 25 q 292 107 303 75 q 285 161 285 129 q 355 313 285 269 q 397 325 375 325 q 460 301 433 325 q 503 188 503 262 q 479 89 503 135 q 393 24 447 24 m 406 104 q 410 106 407 104 q 435 161 428 124 q 437 189 437 176 q 419 241 437 223 q 415 243 417 243 q 387 216 401 243 q 377 173 377 196 q 385 127 377 146 q 403 104 393 109 q 406 104 404 104 m 109 504 q 33 540 66 505 q 0 641 0 574 q 70 793 0 749 q 113 805 90 805 q 176 781 149 805 q 218 668 218 741 q 195 569 218 616 q 109 504 162 504 m 121 584 q 125 586 123 584 q 151 642 143 604 q 153 669 153 656 q 135 722 153 703 q 130 723 133 723 q 103 696 116 723 q 92 652 92 675 q 100 607 92 626 q 118 585 109 589 l 121 584 z "},"&":{"ha":665,"x_min":0,"x_max":549,"o":"m 158 -20 q 116 -16 138 -20 l 113 -15 l 103 -13 q 35 24 62 -3 q 0 110 0 64 q 1 136 0 111 q 21 203 1 161 q 83 317 50 268 l 90 326 q 20 553 20 434 q 26 618 20 587 q 149 795 54 740 q 253 823 204 823 q 302 814 279 823 q 394 722 366 790 q 414 616 414 672 q 405 543 414 577 q 288 321 377 433 q 369 244 324 285 q 427 306 398 274 q 473 328 447 326 q 521 311 500 328 q 544 264 542 292 q 526 216 544 236 q 469 154 500 187 l 530 100 q 549 57 549 81 q 529 14 549 32 l 512 0 q 477 -12 496 -12 q 439 1 455 -12 l 438 1 q 370 62 404 32 q 318 26 341 38 q 201 -16 253 -6 l 198 -16 q 158 -20 190 -20 m 180 440 q 233 521 211 479 q 259 633 259 573 q 256 668 259 653 q 248 685 252 682 q 239 686 248 686 q 214 677 232 686 q 157 589 172 652 q 154 552 154 571 q 180 440 154 499 m 155 115 q 227 132 185 115 q 269 153 256 144 q 200 220 231 189 q 137 118 137 146 l 137 117 q 155 115 144 115 z "},"'":{"ha":231,"x_min":0,"x_max":115,"o":"m 55 696 q 11 711 28 696 q 0 733 0 720 l 5 890 q 59 922 7 922 q 92 911 79 922 q 102 889 101 902 l 115 730 q 67 696 115 703 l 55 696 z "},"(":{"ha":359,"x_min":0,"x_max":243,"o":"m 192 -124 q 151 -104 166 -124 q 0 344 0 96 q 25 563 0 456 q 132 854 64 730 q 155 877 142 873 q 174 880 168 880 q 199 873 186 880 q 228 851 221 865 q 235 827 235 837 q 231 810 235 819 q 178 572 186 692 q 170 385 170 452 q 180 192 170 286 q 238 -48 197 33 q 243 -72 243 -60 q 226 -111 243 -95 q 192 -124 210 -124 z "},")":{"ha":359,"x_min":0,"x_max":243,"o":"m 57 -124 l 52 -124 q 18 -111 33 -124 q 0 -73 0 -95 q 6 -48 0 -60 q 63 192 46 33 q 73 385 73 286 q 65 572 73 452 q 12 810 57 692 q 9 827 9 819 q 45 873 9 859 q 70 880 57 880 q 89 877 76 880 q 113 854 102 873 q 219 563 180 730 q 243 344 243 460 q 94 -104 243 97 q 57 -124 79 -123 z "},"*":{"ha":420,"x_min":0,"x_max":304,"o":"m 234 680 q 203 690 218 680 l 156 727 q 124 700 140 713 q 90 686 108 686 q 77 687 88 686 q 52 703 66 688 q 40 735 40 718 q 41 749 40 737 q 57 774 41 760 l 75 790 l 20 833 q 0 871 0 849 q 10 903 0 888 q 51 923 26 923 q 81 912 66 923 l 100 898 l 100 958 q 114 993 100 979 q 149 1008 128 1007 q 185 994 171 1008 q 200 958 199 979 l 200 898 l 222 917 q 255 929 237 929 q 267 928 256 929 q 293 911 278 928 q 304 880 304 897 q 304 867 304 878 q 288 841 303 855 l 233 794 l 265 770 q 285 730 285 754 q 274 699 285 713 q 234 680 258 680 z "},"+":{"ha":498,"x_min":0,"x_max":389,"o":"m 184 197 q 155 206 170 197 q 140 233 140 215 l 145 339 l 41 336 q 2 383 16 336 q 0 401 0 393 q 7 428 0 416 q 36 446 18 446 l 151 440 l 156 550 q 168 574 157 566 q 202 586 180 582 l 209 586 q 232 577 222 586 q 241 555 241 569 l 244 435 l 353 430 q 377 418 369 429 q 389 384 385 406 l 389 377 q 381 354 389 363 q 358 345 372 345 l 247 342 l 250 238 q 203 199 250 212 q 184 197 193 197 z "},",":{"ha":264,"x_min":0,"x_max":149,"o":"m 45 -72 q 31 -68 38 -72 q 21 -49 21 -60 q 35 -19 21 -33 q 47 -7 45 -9 q 2 44 12 8 q 0 62 0 53 q 12 98 0 81 q 70 127 33 127 q 117 113 94 127 q 146 70 139 98 q 149 54 149 65 q 137 16 149 33 q 78 -56 114 -27 q 45 -72 58 -72 z "},"-":{"ha":500,"x_min":0,"x_max":385,"o":"m 46 279 q 9 311 22 279 q 0 349 0 334 q 12 385 0 368 q 42 400 24 400 l 344 385 q 385 334 378 382 l 385 326 q 377 301 385 311 q 348 288 366 288 l 46 279 z "},".":{"ha":275,"x_min":0,"x_max":159,"o":"m 76 -18 q 24 1 46 -18 q 0 58 0 24 q 55 126 0 102 q 86 132 71 132 q 132 117 111 132 q 159 66 159 96 l 159 62 q 111 -12 155 4 q 76 -18 92 -18 z "},"/":{"ha":512,"x_min":0,"x_max":397,"o":"m 81 -11 q 46 0 60 -11 l 34 7 q 0 77 0 33 q 8 120 0 98 l 265 812 q 326 855 281 855 q 372 836 351 855 l 336 801 l 372 836 q 397 779 397 809 q 393 755 397 766 l 146 42 q 81 -11 126 -11 z "},":":{"ha":275,"x_min":0,"x_max":159,"o":"m 75 -18 q 24 1 46 -18 q 0 58 0 24 q 55 126 0 102 q 86 132 71 132 q 132 117 110 132 q 159 66 159 96 l 159 62 q 111 -12 153 3 q 75 -18 92 -18 m 82 430 q 24 449 46 430 q 0 506 0 472 q 55 574 0 550 q 87 581 71 581 q 132 566 111 581 q 159 513 159 544 l 159 510 q 142 459 156 476 q 111 436 128 442 q 82 430 94 431 z "},";":{"ha":275,"x_min":0,"x_max":159,"o":"m 82 430 q 24 449 46 430 q 0 506 0 473 q 55 574 0 550 q 87 581 71 581 q 132 566 111 581 q 159 513 159 545 q 142 460 159 479 q 82 430 119 432 m 54 -72 q 40 -68 46 -72 q 30 -48 30 -60 q 43 -19 30 -33 l 56 -7 q 10 44 21 8 q 8 60 8 52 q 20 98 8 81 q 79 127 42 127 q 125 113 102 127 q 155 70 147 98 l 155 68 q 157 52 157 60 q 145 16 157 33 q 86 -56 124 -26 q 54 -72 66 -72 z "},"<":{"ha":406,"x_min":0,"x_max":298,"o":"m 233 190 q 207 198 220 190 q 21 338 203 200 q 0 380 1 355 q 20 422 0 406 l 194 561 q 232 574 211 574 q 283 546 260 574 q 298 508 297 529 q 282 471 298 486 q 134 372 277 466 l 248 285 q 272 262 263 273 l 283 245 l 278 226 q 264 202 273 210 q 233 190 250 190 z "},"=":{"ha":458,"x_min":0,"x_max":350,"o":"m 37 429 q 2 475 14 429 q 0 494 0 486 q 8 524 0 509 q 33 538 16 538 l 318 522 q 339 510 332 522 q 350 477 347 498 l 350 469 q 342 447 350 456 q 322 437 335 437 l 37 429 m 37 250 q 2 297 14 250 q 0 315 0 307 q 6 341 0 330 q 33 359 16 359 l 318 343 q 339 332 332 343 q 350 298 347 320 l 350 290 q 342 268 350 277 q 322 258 335 259 l 37 250 z "},">":{"ha":406,"x_min":0,"x_max":298,"o":"m 64 190 q 34 202 48 190 q 20 226 24 210 l 14 245 l 26 262 q 50 285 35 273 l 51 286 l 163 372 l 16 471 q 0 507 0 486 q 14 546 1 529 q 67 574 37 574 q 79 573 68 574 q 104 561 89 573 l 278 422 q 298 380 298 406 q 277 338 297 355 q 91 198 93 199 q 64 190 78 190 z "},"?":{"ha":569,"x_min":0,"x_max":454,"o":"m 190 -68 q 138 -49 160 -68 q 114 7 114 -25 q 169 76 114 52 q 200 82 185 82 q 246 67 224 82 q 273 16 273 46 l 273 12 q 225 -62 269 -46 q 190 -68 205 -68 m 193 143 q 145 158 169 143 q 109 237 109 184 q 118 296 109 262 q 207 470 140 376 q 290 638 288 587 q 278 662 290 650 q 207 689 248 689 q 143 657 167 689 q 115 597 123 630 q 95 563 111 576 q 58 551 79 551 q 12 573 30 551 q 0 608 0 589 q 8 648 0 624 l 7 649 l 14 665 q 96 779 43 742 q 205 821 149 817 q 233 823 218 823 q 288 818 260 823 q 431 730 389 800 q 454 647 454 692 q 414 512 454 585 q 359 419 389 465 q 292 309 310 346 q 265 212 271 268 q 224 150 260 168 q 193 143 209 143 z "},"@":{"ha":1025,"x_min":0,"x_max":910,"o":"m 509 -123 q 321 -96 409 -123 q 39 161 119 -33 q 0 367 0 256 q 60 621 0 505 q 199 778 113 722 q 474 855 322 855 q 713 798 604 855 q 860 657 809 745 q 910 456 910 570 q 881 321 910 388 q 802 210 852 255 q 612 142 723 142 q 557 146 584 142 q 510 164 530 151 q 488 207 490 178 l 487 258 q 343 157 419 157 q 245 222 279 157 q 219 337 219 273 q 223 400 219 351 q 269 516 227 448 q 434 611 332 611 q 492 604 462 611 l 506 601 l 513 606 q 524 614 521 612 q 558 621 536 621 q 659 578 625 621 q 677 512 677 553 q 673 470 677 491 q 665 352 666 419 l 666 311 q 671 302 666 302 q 692 315 677 302 q 746 389 730 345 q 760 456 760 427 q 641 665 760 600 q 476 705 566 705 q 414 703 468 705 q 281 652 359 701 q 191 545 225 614 q 151 366 151 464 q 179 217 151 288 q 366 50 229 90 q 513 30 432 30 q 777 117 671 30 q 822 133 798 133 l 837 133 q 871 116 850 133 q 899 56 899 92 q 872 -1 899 23 q 699 -94 793 -64 q 509 -123 604 -123 m 359 248 q 385 259 366 248 q 447 350 418 291 q 488 477 477 408 l 489 524 q 465 529 474 529 q 429 517 446 529 q 383 460 401 498 q 355 379 364 422 q 345 302 345 336 q 359 248 347 260 z "},"A":{"ha":653,"x_min":0,"x_max":591,"o":"m 494 -22 l 492 -22 l 492 -21 q 432 6 456 -18 q 407 65 409 29 q 395 211 404 138 l 132 211 q 120 43 123 123 q 102 2 119 18 q 59 -15 85 -15 q 17 3 33 -14 q 0 46 0 21 l 0 47 q 28 366 4 199 q 123 704 59 582 l 125 706 q 194 791 154 761 q 290 825 239 825 q 330 821 309 825 q 505 598 440 789 q 577 249 555 448 q 591 64 591 117 q 568 5 591 28 q 494 -22 541 -22 m 380 331 q 330 575 359 475 q 273 695 301 675 q 225 640 257 689 q 146 331 175 539 l 380 331 z "},"B":{"ha":585,"x_min":0,"x_max":540,"o":"m 191 -22 l 185 -22 q 28 23 94 -22 l 24 26 q 0 87 0 51 q 3 480 1 264 q 3 706 3 633 l 3 708 q 8 752 3 730 q 31 792 14 774 q 84 812 52 812 q 126 798 107 812 q 248 837 185 837 q 313 827 271 837 q 404 764 354 817 q 462 611 462 701 q 425 477 462 542 q 402 446 414 460 q 529 319 500 408 q 540 252 540 286 q 525 168 540 211 q 415 36 495 87 q 191 -22 326 -22 m 190 485 q 313 545 273 485 q 331 612 331 577 q 330 632 331 613 q 309 674 330 651 q 262 704 283 701 q 246 706 253 706 q 227 703 235 706 q 186 680 204 695 q 160 651 169 665 q 157 487 158 583 q 190 485 174 485 m 189 110 q 285 122 240 110 q 361 159 330 134 q 409 250 409 199 q 404 281 409 262 q 374 315 398 301 q 234 346 315 346 q 156 339 193 346 q 153 111 155 205 q 189 110 172 110 z "},"C":{"ha":616,"x_min":0,"x_max":549,"o":"m 304 -22 q 140 35 222 -22 q 53 137 85 73 q 0 380 0 239 q 4 458 0 406 q 31 581 8 511 q 155 772 74 707 q 325 832 230 832 q 430 806 387 832 q 515 689 494 766 q 517 673 517 681 q 505 640 517 656 q 467 622 493 623 l 451 622 q 402 658 415 623 q 384 690 397 675 q 333 705 357 705 q 264 664 294 705 q 209 543 228 616 q 188 373 188 461 q 202 238 188 303 q 250 134 216 173 q 273 115 256 125 q 307 106 286 106 q 331 109 313 106 q 397 141 349 111 q 435 201 422 167 q 458 231 442 220 q 490 241 473 241 l 494 241 q 539 214 524 238 q 549 182 549 199 q 546 161 549 172 q 493 70 528 111 q 413 5 459 29 q 304 -22 360 -22 z "},"D":{"ha":614,"x_min":0,"x_max":562,"o":"m 178 -22 q 77 -11 117 -20 q 45 -3 60 -10 q 32 1 34 1 l 33 5 l 32 5 q 26 10 28 8 q 0 73 1 36 q 3 475 2 254 q 4 707 3 632 l 4 709 q 9 754 4 731 q 33 795 15 777 q 87 815 54 815 q 124 806 107 815 q 235 835 175 835 q 317 823 262 835 q 447 749 372 812 q 562 487 549 659 q 562 454 562 471 q 530 257 562 357 q 430 83 497 157 q 178 -22 332 -22 m 176 112 q 247 122 208 112 q 323 171 286 133 q 395 304 370 224 q 416 444 416 373 q 415 469 416 456 q 351 633 408 582 q 269 679 310 667 q 233 685 249 685 q 197 677 213 685 q 166 641 174 665 q 163 400 164 545 q 159 113 161 235 q 176 112 167 112 z "},"E":{"ha":486,"x_min":0,"x_max":434,"o":"m 203 -30 q 115 -27 147 -30 q 81 -23 83 -24 l 59 -14 q 26 7 38 -3 q 0 70 0 33 q 3 472 2 251 q 4 703 3 629 q 15 764 4 742 q 31 785 20 775 q 53 802 41 794 q 74 814 65 809 l 83 818 q 153 826 87 821 q 215 828 179 828 q 345 823 269 828 q 393 798 376 819 q 409 755 409 779 l 408 745 q 386 703 405 718 q 349 691 372 691 q 337 692 343 691 q 235 701 281 701 q 172 691 196 701 q 168 474 169 616 l 294 474 q 343 454 323 474 q 363 406 363 435 q 343 358 363 378 q 294 338 323 338 l 166 338 q 163 106 165 205 q 205 106 181 106 q 357 114 275 106 l 364 115 q 408 100 388 115 q 433 57 429 85 q 434 47 434 52 q 418 4 434 24 q 372 -20 402 -16 q 203 -30 285 -30 z "},"F":{"ha":418,"x_min":0,"x_max":403,"o":"m 81 -31 q 26 -9 50 -31 q 0 55 1 17 q 3 463 2 239 q 4 697 3 622 q 14 760 4 737 q 30 780 20 770 q 53 798 41 790 q 73 810 64 806 l 81 814 q 151 823 85 817 q 210 825 176 825 q 340 819 264 825 q 388 793 370 816 q 403 751 403 775 l 402 742 q 377 697 398 714 q 333 682 358 682 l 328 682 q 212 687 260 687 q 169 686 188 687 q 165 465 167 610 l 255 465 q 303 445 283 465 q 323 397 323 425 q 303 348 323 368 q 255 328 283 328 l 163 328 q 159 62 162 166 q 140 -5 157 15 q 104 -28 123 -25 l 97 -31 l 81 -31 z "},"G":{"ha":637,"x_min":0,"x_max":574,"o":"m 315 -28 q 217 -12 271 -28 q 100 65 146 13 q 28 187 53 117 q 0 364 0 270 q 13 492 0 429 q 86 681 35 603 q 205 798 136 760 q 323 828 260 828 q 356 826 339 828 q 427 805 389 822 q 497 747 466 787 q 541 635 528 707 l 541 624 q 524 578 541 598 q 475 556 506 556 q 434 574 452 556 q 413 614 417 589 q 389 670 408 654 q 325 690 365 690 q 313 690 319 690 q 279 665 296 682 q 213 532 236 616 q 189 355 189 447 q 216 190 189 262 q 270 115 239 136 q 314 109 294 109 q 388 134 356 109 q 431 194 416 159 q 446 258 446 229 q 445 268 446 264 q 406 247 432 262 q 374 238 391 238 q 351 242 367 238 q 321 269 336 246 q 310 306 310 288 q 314 332 310 314 q 343 366 318 350 q 466 412 416 412 q 515 399 492 412 q 574 264 574 363 l 574 258 q 564 183 574 224 q 530 100 554 142 q 426 -1 492 35 q 315 -28 376 -28 z "},"H":{"ha":587,"x_min":0,"x_max":538,"o":"m 443 -21 q 390 -1 412 -21 q 363 65 364 26 q 364 123 364 93 q 363 233 364 174 l 164 235 q 158 44 161 64 q 113 -17 151 -1 l 105 -20 l 85 -21 q 47 -9 64 -21 q 13 53 22 9 q 0 342 0 131 q 3 562 0 441 q 24 779 9 736 q 53 812 31 799 q 83 821 66 821 q 96 820 90 821 l 101 820 q 168 781 144 820 q 178 734 178 764 l 178 733 q 168 356 174 642 l 361 353 q 358 478 360 417 q 355 706 355 629 l 355 718 q 383 796 355 770 q 451 825 410 825 q 502 806 479 825 q 538 726 538 775 l 538 724 q 522 211 532 592 l 517 73 q 466 -18 515 -3 l 458 -20 l 443 -21 z "},"I":{"ha":338,"x_min":0,"x_max":279,"o":"m 205 -22 l 58 -22 q 17 -6 34 -22 q 0 31 0 9 q 17 67 0 52 q 58 83 34 83 l 60 87 q 62 94 62 92 l 62 95 q 50 349 50 162 q 54 536 50 433 q 65 692 58 640 q 66 703 66 696 q 65 715 66 709 q 65 726 65 722 l 64 730 q 28 745 41 730 q 16 782 16 760 q 33 819 16 804 q 74 834 50 834 l 221 834 q 262 819 245 834 q 279 782 279 804 q 262 745 279 760 q 221 730 245 730 l 220 705 q 215 538 218 657 q 209 321 209 333 q 203 112 205 193 l 204 94 l 205 83 q 245 67 229 83 q 262 31 262 52 q 245 -6 262 9 q 205 -22 229 -22 z "},"J":{"ha":532,"x_min":0,"x_max":474,"o":"m 205 -19 q 78 24 133 -19 q 8 127 28 62 q 0 189 0 157 q 26 302 0 244 q 78 334 44 334 q 115 320 98 334 q 136 273 136 301 q 130 245 136 259 q 116 188 116 215 q 119 162 116 174 q 153 117 129 132 q 205 103 177 103 q 267 169 245 110 q 289 338 286 224 q 290 405 290 372 q 289 471 290 438 l 289 526 q 279 707 289 618 q 236 708 256 708 q 165 705 193 708 l 161 705 q 125 717 142 705 q 104 751 109 729 q 102 767 102 760 q 115 804 102 786 q 155 826 128 823 q 239 830 189 830 l 273 830 q 376 822 302 830 q 430 795 408 819 q 453 735 451 770 q 473 502 466 621 q 474 433 474 468 q 463 264 474 349 q 396 81 448 152 q 264 -11 345 11 q 205 -19 233 -19 z "},"K":{"ha":567,"x_min":0,"x_max":490,"o":"m 85 -34 l 81 -34 q 28 -12 52 -34 q 0 62 0 17 q 4 476 4 400 q 6 713 5 637 q 46 821 8 797 q 92 834 65 834 q 138 819 117 834 q 170 771 162 799 q 176 728 176 748 l 175 718 q 170 437 172 633 q 231 499 199 462 q 291 587 262 536 q 337 704 319 638 q 370 749 346 733 q 412 762 389 762 q 423 762 417 762 q 476 726 458 755 q 488 685 488 707 q 486 663 488 674 q 304 351 432 473 q 410 231 359 303 q 486 76 461 159 q 490 53 490 64 q 470 2 490 27 q 410 -23 450 -23 q 365 -6 384 -22 q 338 33 347 9 q 294 126 323 81 q 232 205 264 171 q 179 254 199 239 l 168 248 q 165 68 167 140 l 165 66 q 162 37 165 56 q 148 0 159 18 q 113 -29 137 -19 l 102 -33 l 85 -34 z "},"L":{"ha":495,"x_min":0,"x_max":453,"o":"m 216 -22 q 126 -19 159 -22 q 90 -15 93 -16 l 85 -15 q 30 7 54 -15 q 0 79 0 35 q 4 488 2 265 q 6 724 5 648 q 47 831 8 806 q 96 844 68 844 q 145 827 123 844 q 183 738 183 798 l 183 729 q 178 420 181 671 q 173 116 176 245 q 216 115 192 115 q 272 116 235 115 q 373 123 309 117 l 380 124 q 426 109 405 124 q 452 66 446 94 q 453 56 453 61 q 437 12 453 33 q 389 -12 420 -8 q 216 -22 301 -22 z "},"M":{"ha":772,"x_min":0,"x_max":686,"o":"m 587 -30 q 545 -15 565 -30 q 523 15 531 -3 q 515 54 515 33 q 510 463 514 237 l 510 464 l 374 152 q 317 111 357 114 l 315 111 q 267 134 286 111 q 246 171 255 149 q 138 473 214 248 l 138 41 q 121 0 137 16 q 80 -18 104 -16 l 58 -18 q 17 -1 34 -17 q 0 41 1 16 l 0 728 q 28 797 0 768 q 96 826 56 826 l 142 826 q 197 809 172 826 q 234 764 222 793 q 361 422 235 762 l 509 760 q 523 784 513 772 q 557 804 539 800 q 583 808 573 808 l 593 808 q 663 783 638 808 q 684 739 682 761 q 686 719 686 728 q 685 705 686 711 q 684 700 684 705 q 681 313 681 576 q 682 65 681 172 q 672 7 682 28 q 646 -21 661 -13 q 618 -30 631 -28 l 587 -30 z "},"N":{"ha":647,"x_min":0,"x_max":560,"o":"m 473 -23 q 460 -22 467 -23 q 371 34 400 -18 l 135 471 l 136 56 q 116 8 135 27 q 68 -12 97 -10 q 21 8 40 -11 q 1 56 1 27 l 0 733 q 28 801 1 774 q 96 829 57 829 l 111 829 q 199 771 171 825 l 423 357 l 425 754 q 445 801 426 782 q 493 821 465 820 q 541 801 522 820 q 560 753 559 782 l 556 62 l 555 54 q 516 -12 549 5 q 473 -23 495 -23 z "},"O":{"ha":616,"x_min":0,"x_max":550,"o":"m 271 -24 l 262 -24 q 100 53 178 -24 q 24 189 56 96 q 0 355 0 254 q 170 778 0 655 q 280 814 224 814 q 366 793 322 814 q 526 569 484 726 q 550 386 550 477 q 538 258 550 321 q 271 -24 478 -5 m 268 106 q 372 174 338 116 q 414 283 405 232 q 423 391 423 338 q 399 549 423 460 q 309 677 376 639 l 300 680 l 299 681 q 281 677 288 680 q 212 574 241 653 q 177 369 177 481 q 198 207 177 272 q 268 106 225 123 z "},"P":{"ha":530,"x_min":0,"x_max":475,"o":"m 81 -19 q 26 2 50 -19 q 0 72 0 29 l 5 692 q 28 781 7 756 q 87 806 52 806 q 111 802 100 806 q 228 827 163 827 q 263 824 248 827 q 426 721 368 806 q 475 555 475 650 q 473 518 475 537 q 360 314 458 392 q 167 250 273 250 l 161 250 q 157 79 159 147 l 157 75 q 142 13 157 39 q 98 -18 130 -6 l 81 -19 m 167 381 q 279 418 231 381 q 344 555 344 469 q 322 641 344 599 q 243 694 300 684 q 225 696 234 696 q 168 683 182 696 q 163 400 165 587 l 163 381 l 167 381 z "},"Q":{"ha":631,"x_min":0,"x_max":578,"o":"m 434 -83 q 388 -54 402 -83 l 365 0 q 275 -17 320 -17 q 105 61 186 -17 q 24 198 58 104 q 0 369 0 267 q 178 795 0 670 q 294 831 235 831 q 383 811 338 831 q 551 584 507 743 q 578 399 578 491 q 564 268 578 333 q 451 52 534 128 l 480 -15 q 484 -35 484 -24 q 454 -79 484 -66 q 434 -83 444 -83 m 281 115 q 311 120 297 116 l 275 204 q 271 224 271 214 q 300 269 271 254 q 321 273 311 273 q 366 243 353 273 q 392 186 379 214 q 434 294 425 243 q 444 404 444 351 q 419 564 444 473 q 323 694 395 654 q 315 697 319 696 l 314 697 q 302 695 307 697 q 222 588 258 680 q 186 381 186 495 q 208 217 186 283 q 281 115 236 132 z "},"R":{"ha":530,"x_min":0,"x_max":458,"o":"m 83 -23 q 28 -3 50 -23 q 0 69 0 26 q 1 325 1 189 l 1 465 q 1 693 1 619 q 27 784 4 759 q 71 811 50 808 q 90 812 81 812 q 199 833 140 833 q 234 831 219 833 q 400 726 340 812 q 450 559 450 654 q 448 521 450 541 q 333 314 432 393 q 307 296 320 304 q 456 68 412 212 q 458 50 458 58 q 440 2 458 25 q 387 -22 422 -22 q 337 -7 357 -22 q 311 32 317 7 q 249 142 292 95 q 163 216 206 189 q 158 45 161 66 q 109 -18 152 -2 l 100 -22 l 83 -23 m 166 384 q 252 420 214 391 q 317 557 317 471 q 294 645 317 602 q 214 700 272 688 q 197 701 205 701 q 171 699 184 701 q 166 401 170 663 l 166 384 z "},"S":{"ha":500,"x_min":0,"x_max":453,"o":"m 204 -18 q 63 33 123 -18 q 0 199 0 100 l 1 218 q 31 270 3 253 q 63 279 45 279 q 90 273 75 279 q 129 212 128 254 l 128 202 q 133 161 128 182 q 203 114 144 114 q 274 133 241 114 l 275 134 l 275 135 q 293 176 293 156 q 200 312 293 231 q 31 616 31 458 q 37 675 31 646 q 125 801 58 759 q 234 831 174 831 q 311 812 275 831 q 412 628 402 757 q 385 575 410 593 q 350 564 369 564 l 347 564 q 322 570 335 564 q 283 627 286 586 q 247 698 279 677 q 229 703 238 703 q 198 684 214 703 q 180 650 186 671 q 178 635 178 644 q 186 607 178 622 q 309 458 227 537 q 391 372 347 420 q 453 218 453 299 q 423 103 453 163 q 248 -15 369 9 q 204 -18 225 -18 z "},"T":{"ha":609,"x_min":0,"x_max":559,"o":"m 255 -23 l 252 -23 q 180 51 197 -23 q 166 333 166 124 q 178 691 166 552 l 69 691 q 20 711 41 691 q 0 760 0 731 q 20 809 0 789 q 69 829 41 829 l 491 829 q 539 809 519 829 q 559 760 559 789 q 539 711 559 731 q 491 691 519 691 l 343 691 q 338 527 340 629 q 333 308 333 323 q 324 42 326 58 q 255 -23 315 -18 z "},"U":{"ha":680,"x_min":0,"x_max":610,"o":"m 303 -18 q 176 9 237 -18 q 37 174 80 54 q 1 389 1 297 l 0 449 q 18 753 0 591 q 33 794 18 772 q 102 827 55 825 l 136 827 q 196 803 172 827 q 217 748 217 781 l 217 741 q 208 499 208 616 q 209 396 208 447 q 241 204 215 278 q 286 130 263 144 q 340 120 301 121 q 381 136 365 127 q 450 254 428 163 q 473 491 473 370 q 471 560 473 526 q 469 699 471 650 q 488 748 469 728 q 537 768 507 767 q 585 749 566 767 q 606 703 604 730 q 606 652 606 677 q 610 491 610 517 q 583 222 610 358 q 516 75 562 134 q 357 -14 461 9 q 303 -18 324 -18 z "},"V":{"ha":653,"x_min":0,"x_max":625,"o":"m 302 -18 q 271 -13 286 -18 q 132 135 185 21 q 50 386 79 250 q 12 623 22 522 q 1 730 1 718 l 1 734 q 0 749 0 740 q 1 769 0 755 q 19 804 3 783 q 80 829 39 829 l 120 829 q 206 734 203 827 q 247 392 214 559 q 319 178 279 224 l 334 191 q 414 423 372 280 q 490 722 456 566 q 519 764 497 749 q 556 774 536 774 q 614 743 593 774 q 625 707 625 727 q 623 692 625 700 q 555 422 601 588 q 438 97 487 183 q 355 -3 389 10 q 302 -18 328 -18 z "},"W":{"ha":946,"x_min":0,"x_max":886,"o":"m 662 -18 l 654 -18 q 461 160 540 -15 q 397 37 437 89 q 288 -18 357 -18 q 134 102 192 -4 q 48 346 77 209 q 10 591 20 484 q 1 711 1 692 l 0 731 q 1 752 0 738 q 20 786 2 766 q 81 812 39 812 l 124 812 q 206 721 200 812 q 244 365 216 526 q 307 150 273 203 q 350 263 329 192 q 387 414 372 334 l 389 419 q 405 456 393 439 q 479 496 433 492 l 499 496 q 562 475 534 496 q 597 416 589 453 q 632 285 610 348 q 673 190 653 222 q 697 241 682 205 q 749 713 739 424 q 770 761 751 742 q 819 780 789 780 q 867 759 848 779 q 886 709 886 739 q 865 410 884 593 q 662 -18 818 -18 z "},"X":{"ha":680,"x_min":0,"x_max":621,"o":"m 539 -18 q 463 19 507 -18 q 303 227 408 77 l 207 66 q 146 31 185 31 q 111 41 127 31 q 76 102 76 62 q 86 138 76 120 l 216 355 q 17 678 59 592 q 0 735 0 710 q 47 806 0 783 q 100 824 71 824 l 106 824 q 182 775 150 824 q 330 545 227 705 l 476 789 q 536 823 497 823 q 572 813 555 823 q 607 753 607 791 q 597 717 607 734 l 414 413 l 437 379 q 610 106 602 121 q 621 60 621 83 q 599 7 621 36 l 584 -3 q 539 -18 568 -18 z "},"Y":{"ha":632,"x_min":0,"x_max":604,"o":"m 298 -21 q 218 1 257 -21 q 138 91 166 30 q 132 117 132 104 q 142 149 132 130 q 180 174 151 167 q 198 176 189 176 q 252 142 233 176 q 303 104 271 104 q 360 134 334 104 q 437 503 437 232 l 437 532 q 365 388 408 459 q 201 296 306 302 q 64 361 119 296 q 0 593 0 446 q 9 718 0 663 q 17 763 16 760 q 41 802 24 787 l 41 800 q 72 823 50 812 q 107 829 87 829 q 178 798 154 829 q 192 753 192 777 q 191 740 192 747 q 176 591 176 661 q 188 481 176 535 q 205 446 195 452 q 228 439 212 439 q 245 442 237 439 q 264 463 252 446 q 342 635 302 526 q 395 758 371 711 q 456 823 420 805 q 484 829 477 829 l 519 828 q 572 807 550 827 q 598 755 594 787 q 604 637 604 701 q 589 347 604 500 q 490 77 575 179 q 384 -3 446 26 q 298 -21 344 -21 z "},"Z":{"ha":551,"x_min":0,"x_max":522,"o":"m 200 -18 q 31 18 75 -18 q 0 82 1 44 q 86 304 3 162 q 288 618 170 447 q 353 715 343 701 l 310 716 q 127 702 212 716 l 117 701 q 84 712 100 701 q 60 760 60 728 q 72 794 60 777 q 108 816 83 811 q 311 832 204 832 q 449 820 385 832 q 511 764 490 810 q 522 715 522 739 q 508 662 522 687 q 376 462 457 579 q 157 106 193 190 q 224 100 174 100 q 363 111 271 100 l 371 111 q 408 98 391 111 q 429 54 429 82 q 416 17 429 33 q 378 -4 403 0 q 200 -18 270 -18 z "},"[":{"ha":391,"x_min":0,"x_max":276,"o":"m 148 -136 q 90 -130 119 -136 q 14 -35 22 -115 q 7 103 12 -9 q 0 463 0 291 q 23 812 0 730 q 112 888 41 871 q 162 894 134 894 q 220 890 187 894 q 229 888 225 888 l 238 887 q 267 870 257 884 q 276 845 276 859 q 256 795 276 810 q 231 787 245 787 l 224 787 l 220 788 q 189 791 198 791 q 184 777 187 789 q 170 359 170 690 q 176 -12 170 95 l 178 -34 q 193 -33 186 -33 q 221 -43 209 -33 q 238 -88 238 -57 q 228 -118 238 -104 q 199 -133 217 -131 q 148 -136 170 -136 z "},"\\":{"ha":513,"x_min":0,"x_max":397,"o":"m 316 -11 q 251 42 272 -11 l 4 755 q 0 780 0 766 q 2 799 0 785 q 26 836 3 813 q 71 855 46 855 q 85 854 78 855 q 132 812 119 846 l 389 119 q 397 77 397 98 q 393 46 397 66 q 351 0 387 20 q 316 -11 336 -11 z "},"]":{"ha":391,"x_min":0,"x_max":276,"o":"m 127 -136 q 77 -133 106 -136 q 47 -117 58 -131 q 38 -90 38 -105 q 40 -70 38 -87 q 55 -43 42 -53 q 82 -33 67 -33 q 97 -34 90 -33 q 99 -12 98 -25 q 106 382 106 102 q 92 777 106 686 q 87 791 89 789 q 56 788 79 791 l 51 787 l 45 787 q 18 796 31 787 q 0 844 0 810 q 9 871 0 859 q 37 887 19 884 q 45 888 39 887 q 58 890 52 888 q 114 894 89 894 q 225 857 189 894 q 252 812 245 836 q 276 454 276 732 q 262 -35 276 223 q 186 -130 254 -115 q 127 -136 157 -136 z "},"^":{"ha":338,"x_min":0,"x_max":230,"o":"m 47 579 q 7 610 25 579 l 3 616 q 0 633 0 625 q 5 655 0 644 l 92 807 q 119 824 100 823 q 146 806 136 823 l 224 654 q 230 637 230 646 q 211 609 230 617 l 195 602 q 183 614 189 608 q 170 634 177 621 l 124 722 l 71 592 q 47 579 62 579 z "},"_":{"ha":626,"x_min":0,"x_max":511,"o":"m 63 -28 q 5 26 28 -28 q 0 54 0 41 q 9 83 0 67 q 42 98 18 98 l 457 79 q 489 65 477 78 q 509 26 501 52 q 511 13 511 19 q 501 -9 511 1 q 474 -19 492 -19 l 63 -28 z "},"a":{"ha":562,"x_min":0,"x_max":494,"o":"m 423 3 l 417 4 l 393 7 q 350 30 367 10 q 332 79 334 50 l 332 146 q 278 79 307 109 q 218 32 250 49 q 154 15 186 15 l 143 15 q 32 99 71 23 q 0 251 0 166 q 5 332 0 269 q 62 484 9 395 q 182 591 111 562 q 266 608 222 608 q 354 593 310 608 q 404 619 374 616 q 427 618 415 618 l 428 618 q 475 599 456 618 q 494 547 494 581 l 494 541 q 491 410 492 500 q 489 168 489 279 q 490 79 489 115 l 490 78 q 466 20 490 43 q 423 3 447 3 m 173 132 q 205 149 180 132 l 206 148 q 282 266 246 190 q 332 432 319 342 q 334 493 333 465 l 315 499 q 304 500 309 500 q 260 486 280 500 q 202 410 226 460 q 168 305 179 361 q 156 208 156 251 q 161 159 156 176 q 173 132 165 138 z "},"b":{"ha":552,"x_min":0,"x_max":484,"o":"m 87 -3 q 60 1 74 -3 q 13 68 24 13 q 0 350 0 143 q 4 560 0 445 q 15 734 7 675 q 24 769 17 750 q 52 802 31 789 q 83 810 63 810 l 98 810 q 144 795 123 810 q 174 727 174 774 l 174 724 q 168 518 172 661 q 313 603 234 602 q 442 522 392 603 q 484 351 484 448 q 484 295 484 347 q 437 155 483 242 q 340 53 399 87 q 209 18 282 18 q 141 24 176 18 q 102 -3 131 7 l 87 -3 m 176 122 q 234 141 207 122 q 300 232 275 173 q 334 400 334 310 q 332 434 334 411 q 315 481 331 457 q 311 485 313 484 q 304 486 309 486 q 258 467 289 486 q 162 274 198 398 l 159 125 q 176 122 171 122 z "},"c":{"ha":473,"x_min":0,"x_max":422,"o":"m 231 -3 q 94 47 162 -3 q 18 162 40 90 q 0 286 0 221 q 3 348 0 300 q 35 467 6 396 q 137 603 72 557 q 262 643 193 643 q 282 642 272 643 l 288 642 q 297 640 292 642 l 300 640 q 385 587 361 627 q 400 536 400 560 q 381 497 400 512 q 349 486 367 486 q 323 492 338 486 q 294 528 299 502 l 293 530 q 277 536 285 535 q 275 537 276 536 l 269 537 q 232 513 252 537 q 177 388 195 467 q 163 269 163 328 q 167 205 163 252 q 201 120 170 158 q 231 106 211 106 q 248 107 236 106 q 292 127 260 109 q 319 165 309 144 q 367 193 334 193 l 371 193 q 414 168 401 189 q 422 143 422 156 q 417 121 422 132 q 306 12 381 45 q 231 -3 269 -3 z "},"d":{"ha":545,"x_min":0,"x_max":488,"o":"m 163 -7 q 43 68 91 -7 q 0 243 0 142 q 43 434 0 347 q 154 547 85 513 q 259 571 202 571 q 317 566 275 571 q 328 735 321 684 q 365 803 333 783 q 395 811 376 811 q 407 810 400 811 q 457 795 437 810 q 488 725 488 774 q 470 88 484 644 q 456 26 470 52 q 415 -2 444 7 l 397 -3 q 346 22 366 -3 q 321 104 327 45 q 163 -7 251 -5 m 175 104 q 200 115 181 104 q 264 223 235 155 q 306 370 294 291 q 307 460 306 416 q 285 465 292 465 q 247 448 266 465 q 203 385 227 432 q 172 281 182 340 q 161 179 161 227 q 162 148 161 175 q 175 104 162 121 z "},"e":{"ha":497,"x_min":0,"x_max":429,"o":"m 227 -6 q 114 27 172 -6 q 28 122 56 60 q 0 265 0 186 q 21 403 0 336 q 119 566 54 509 q 255 618 180 618 l 270 618 q 379 577 337 611 q 429 471 429 537 q 318 295 429 369 q 253 261 290 277 q 178 241 215 245 l 178 224 q 199 123 178 162 q 239 100 213 100 q 260 103 248 100 q 339 173 298 121 q 378 192 355 192 q 409 182 395 192 q 429 141 429 166 q 418 110 429 125 q 368 55 396 81 q 304 12 339 29 q 227 -6 269 -6 m 195 348 q 298 409 255 366 q 328 469 328 439 q 317 496 328 488 q 305 499 312 499 q 287 496 299 499 q 254 469 275 494 q 195 348 215 422 z "},"f":{"ha":429,"x_min":0,"x_max":391,"o":"m 98 -11 q 86 -10 91 -11 l 85 -10 q 33 8 50 -9 q 9 76 9 33 l 9 81 q 7 141 9 104 l 7 144 q 0 346 0 246 q 1 443 0 370 q 30 602 3 515 q 151 712 54 687 q 191 717 170 717 q 277 700 226 717 q 381 611 328 682 q 391 582 391 597 q 388 563 391 576 q 364 538 385 549 q 340 531 349 531 q 299 553 314 531 q 258 593 279 579 q 237 598 246 598 q 227 595 230 598 q 174 408 185 564 l 251 408 q 285 393 271 407 q 300 358 299 379 q 286 321 300 336 q 251 307 271 307 l 170 307 l 170 275 q 172 154 170 200 q 174 91 174 115 l 174 79 l 174 63 q 173 42 174 56 q 155 10 171 28 q 98 -11 132 -11 z "},"g":{"ha":568,"x_min":0,"x_max":512,"o":"m 209 -252 l 197 -251 q 169 -247 182 -250 q 107 -215 142 -241 q 52 -124 73 -188 q 50 -109 50 -117 q 60 -79 50 -95 q 94 -60 70 -64 l 100 -59 q 129 -68 115 -59 q 148 -95 142 -77 q 193 -149 161 -140 q 199 -149 197 -149 q 267 -117 241 -148 q 328 158 328 -45 q 327 216 328 186 q 247 121 292 158 q 153 83 203 84 q 39 153 84 83 q 0 314 0 220 q 40 491 0 411 q 143 596 79 564 q 240 618 187 618 q 287 614 262 618 q 313 610 300 613 l 313 609 l 322 606 q 356 615 337 615 l 436 614 q 477 602 463 612 q 499 558 499 582 q 512 307 512 447 q 510 209 512 277 q 491 41 509 140 q 433 -122 474 -59 q 373 -186 409 -157 q 294 -234 337 -216 q 209 -252 252 -252 m 178 206 q 198 216 184 208 l 199 215 q 265 315 234 252 q 307 447 296 378 q 298 508 302 477 q 273 514 279 514 q 241 500 258 514 q 205 445 225 486 q 179 360 189 410 q 170 263 170 308 q 178 206 170 223 z "},"h":{"ha":538,"x_min":0,"x_max":471,"o":"m 87 -20 q 60 -16 74 -20 q 13 52 25 -5 q 0 323 0 125 q 3 541 0 423 q 15 718 7 659 q 52 785 19 764 q 81 793 62 793 q 94 793 87 793 l 99 793 q 164 754 141 793 q 174 710 174 738 l 174 708 q 167 465 171 634 q 334 616 239 614 q 423 557 389 616 q 468 325 458 499 q 471 228 471 282 q 466 62 471 155 q 450 13 464 28 q 420 -6 435 -3 q 400 -10 405 -10 q 399 -10 399 -10 q 384 -9 399 -9 q 367 -9 368 -9 q 323 8 341 -9 q 309 49 309 25 l 309 56 q 313 210 313 143 q 306 361 313 286 q 283 465 299 437 l 280 461 q 217 316 243 400 q 176 160 191 231 q 161 68 161 91 l 161 67 l 157 67 l 157 65 q 149 22 157 47 q 102 -20 140 -5 l 87 -20 z "},"i":{"ha":257,"x_min":0,"x_max":163,"o":"m 78 -3 l 70 -3 q 20 16 41 -3 q 3 59 3 35 l 3 60 q 4 202 4 116 q 0 532 4 408 l 0 534 q 20 589 0 570 q 82 612 41 611 q 133 593 113 612 q 156 545 154 574 q 157 461 157 514 q 150 65 157 216 q 133 22 149 42 q 78 -3 116 1 m 83 656 q 28 681 50 657 q 4 734 5 705 q 28 783 5 763 q 87 804 52 802 q 140 778 119 803 q 163 722 161 753 q 140 676 162 694 q 83 656 118 658 z "},"j":{"ha":298,"x_min":-1,"x_max":393,"o":"m 279 657 q 239 669 257 657 q 211 699 222 681 q 200 736 200 717 l 200 737 q 224 784 200 764 q 282 805 249 804 q 320 792 303 805 q 348 761 337 780 q 358 723 358 742 l 358 722 q 335 676 358 695 q 279 657 313 658 m 159 -227 l 153 -228 l 151 -228 q 11 -156 75 -228 q -1 -124 -1 -141 l -1 -122 q 1 -104 -1 -117 q 24 -79 3 -92 q 49 -72 36 -72 q 64 -74 53 -72 q 87 -89 75 -75 q 140 -125 108 -116 l 144 -125 q 162 -116 153 -125 q 218 109 208 -66 q 221 205 221 154 q 220 248 221 227 q 201 540 218 377 l 201 547 l 201 549 q 218 593 201 574 q 262 611 235 611 l 319 611 q 366 593 351 610 q 382 555 380 576 q 392 342 390 460 q 393 271 393 314 q 392 199 393 250 q 380 52 392 149 q 338 -107 368 -45 q 261 -194 309 -162 q 159 -227 213 -227 z "},"k":{"ha":456,"x_min":0,"x_max":418,"o":"m 87 -20 q 60 -16 74 -20 q 13 52 25 -5 q 0 333 0 125 q 4 544 0 428 q 16 718 7 659 q 52 785 20 764 q 81 793 63 793 q 94 793 87 793 l 99 793 q 164 754 142 793 q 174 710 174 738 l 174 708 q 165 357 173 677 q 286 547 250 429 q 315 586 294 572 q 351 597 331 597 q 361 597 356 597 q 408 566 392 591 q 418 531 418 549 q 416 511 418 521 q 282 283 374 373 q 358 195 322 247 q 415 86 395 144 q 418 64 418 74 q 401 20 418 42 q 347 -3 385 -3 q 286 40 304 1 q 186 178 258 104 l 161 203 q 157 71 159 125 l 157 68 q 111 -16 157 2 l 102 -20 l 87 -20 z "},"l":{"ha":230,"x_min":0,"x_max":174,"o":"m 87 -20 q 60 -16 74 -20 q 13 52 25 -5 q 0 333 0 123 q 15 718 0 610 q 52 785 20 764 q 81 793 62 793 q 94 793 87 793 l 99 793 q 164 754 142 793 q 174 710 174 738 l 174 708 q 163 314 171 625 l 157 71 q 111 -16 157 2 l 102 -20 l 87 -20 z "},"m":{"ha":757,"x_min":0,"x_max":695,"o":"m 625 -7 l 573 -6 q 530 12 548 -6 q 516 52 516 28 l 516 59 q 519 176 519 120 q 490 456 519 377 q 453 324 467 400 q 434 182 439 248 q 431 109 433 147 q 366 39 426 39 l 334 41 q 308 48 318 42 q 276 92 279 64 q 274 111 274 103 l 275 117 q 277 195 277 157 q 268 351 277 267 q 237 469 258 435 q 231 463 235 467 q 157 194 181 366 q 155 68 157 119 q 134 15 152 32 q 97 -5 117 -3 q 79 -6 91 -6 q 22 17 46 -6 q 1 64 1 37 l 1 134 q 1 367 1 242 l 0 498 l 0 541 q 43 622 0 601 q 82 629 58 629 q 138 608 115 629 q 161 548 161 583 l 161 544 q 184 571 172 559 q 277 616 228 616 l 279 616 q 401 505 363 616 q 446 572 420 545 q 539 616 490 616 q 618 582 584 616 q 694 266 688 505 q 695 193 695 229 q 692 65 695 127 q 675 16 689 31 q 646 -3 661 1 q 625 -7 630 -7 z "},"n":{"ha":513,"x_min":0,"x_max":462,"o":"m 89 -12 l 77 -12 q 22 10 46 -12 q 1 58 1 31 l 2 127 q 1 361 2 236 l 0 539 q 24 603 0 577 q 81 623 45 623 q 134 602 112 623 q 159 542 159 578 l 159 536 q 157 460 157 511 q 326 616 229 614 q 393 587 364 616 q 441 479 422 563 q 462 229 462 391 q 458 62 462 156 q 441 13 454 28 q 412 -6 427 -3 q 391 -10 397 -10 l 391 -9 l 359 -9 q 315 8 332 -9 q 301 35 303 22 q 300 48 300 42 l 301 56 q 305 210 305 143 q 298 361 305 286 q 275 465 290 437 l 271 461 q 209 316 235 400 q 167 160 182 231 q 153 68 153 91 l 153 67 q 152 62 153 63 q 132 8 150 26 q 89 -12 114 -10 z "},"o":{"ha":461,"x_min":0,"x_max":416,"o":"m 205 -5 l 199 -5 q 76 52 135 -5 q 18 153 43 83 q 0 279 0 203 q 127 595 0 503 q 212 622 169 622 q 277 606 243 622 q 370 508 336 574 q 416 303 416 417 q 406 203 416 252 q 333 54 386 109 q 205 -5 281 -1 m 312 254 q 315 302 315 278 q 301 408 315 351 q 252 500 288 465 l 252 478 q 261 371 252 433 q 312 254 271 309 m 222 100 q 286 161 264 113 q 169 427 180 251 q 146 301 146 366 q 163 177 146 227 q 201 110 179 128 q 222 100 212 100 z "},"p":{"ha":538,"x_min":0,"x_max":479,"o":"m 87 -216 q 60 -212 74 -216 q 13 -143 24 -200 q 0 146 0 -70 q 15 541 0 431 q 52 610 20 589 q 82 618 63 618 q 94 618 87 618 l 99 618 q 144 603 124 618 l 146 602 l 146 603 q 242 625 194 625 q 295 620 256 625 q 388 571 334 614 q 478 379 470 500 l 479 362 q 454 228 479 295 q 379 107 429 160 q 309 56 347 74 q 165 26 243 26 l 161 26 l 157 -127 q 151 -171 157 -144 q 103 -216 142 -200 l 87 -216 m 168 161 q 283 201 240 161 q 344 366 344 269 q 302 467 344 430 q 247 490 273 489 q 208 482 222 490 q 172 455 180 469 q 165 161 168 330 l 168 161 z "},"q":{"ha":531,"x_min":0,"x_max":475,"o":"m 389 -216 q 361 -212 375 -216 q 314 -143 326 -200 q 301 117 302 -65 q 154 18 232 19 l 153 18 q 44 85 89 18 q 0 267 0 159 q 39 450 0 364 q 142 562 78 528 q 238 585 186 585 q 287 580 261 585 q 313 576 300 579 l 313 574 l 323 571 q 353 610 329 595 q 383 618 364 618 q 395 618 389 618 l 400 618 q 445 603 425 618 q 475 534 475 583 l 475 532 q 458 -124 473 481 l 458 -127 q 452 -171 458 -144 q 404 -216 444 -200 l 389 -216 m 180 143 q 198 153 186 145 l 199 152 q 264 258 233 191 q 307 401 296 325 q 310 468 308 438 q 271 479 281 479 q 242 465 258 479 q 205 406 227 451 q 170 212 170 320 q 180 143 170 165 z "},"r":{"ha":515,"x_min":0,"x_max":469,"o":"m 90 -9 l 79 -9 q 22 13 47 -9 q 2 62 2 34 l 2 117 q 1 363 2 231 l 0 550 q 4 578 0 559 q 25 616 7 597 q 81 636 44 636 q 109 631 96 636 q 158 576 147 617 q 250 617 199 606 q 315 626 288 626 q 429 572 384 626 q 469 445 469 520 q 457 365 469 406 q 407 321 444 329 q 395 320 401 320 q 357 328 378 320 q 321 354 336 336 q 307 396 307 374 q 312 422 307 409 q 315 439 315 431 q 294 490 315 467 q 275 500 283 500 q 269 498 273 500 l 269 500 q 225 478 246 494 q 167 329 178 441 q 155 62 165 176 q 90 -9 146 -7 z "},"s":{"ha":436,"x_min":0,"x_max":390,"o":"m 177 -4 q 104 8 139 -4 q 0 153 9 47 l 0 156 q 19 199 0 182 q 57 213 35 213 l 67 212 q 116 160 111 201 q 178 108 120 108 q 220 119 201 108 q 234 131 231 126 q 237 142 237 136 q 221 173 237 155 q 161 224 204 192 l 144 236 q 53 321 94 273 q 6 436 13 370 l 5 447 q 36 545 5 500 q 125 612 66 590 q 188 623 157 623 q 239 616 206 623 q 306 571 272 608 q 340 508 340 536 q 329 477 340 492 q 281 454 312 454 q 230 482 247 454 q 219 497 226 490 q 210 498 215 498 q 180 490 191 498 q 173 468 173 481 q 177 452 173 459 q 216 403 193 426 q 283 340 239 380 q 344 278 312 316 q 388 192 376 241 q 390 170 390 181 q 362 85 390 130 q 304 31 340 53 q 215 -1 267 9 l 215 -1 q 177 -4 196 -4 z "},"t":{"ha":491,"x_min":0,"x_max":420,"o":"m 233 -14 q 112 37 159 -14 q 75 110 83 68 q 51 292 54 188 q 50 357 50 325 q 54 489 50 425 l 47 490 q 13 505 26 491 q 0 538 0 519 q 16 578 0 563 q 51 591 30 591 l 61 590 q 63 619 62 592 q 70 666 65 646 q 143 718 83 718 q 229 690 203 718 q 255 627 255 663 q 252 583 254 610 l 339 580 q 373 564 359 578 q 386 530 386 550 q 370 492 386 506 q 337 479 357 479 l 240 482 q 225 267 225 355 q 230 178 225 229 q 257 106 234 127 q 266 103 260 103 q 286 106 274 103 l 287 105 q 328 144 307 119 q 368 164 344 164 q 395 156 382 164 q 420 113 420 141 q 410 84 420 98 q 321 8 368 31 q 233 -14 274 -14 z "},"u":{"ha":542,"x_min":0,"x_max":474,"o":"m 412 -11 l 390 -9 q 340 11 357 -7 q 324 50 324 28 q 321 193 323 110 l 320 263 q 296 195 308 227 q 241 89 273 123 q 186 50 217 58 q 141 42 163 42 q 97 51 117 42 q 64 74 77 60 q 9 210 21 125 q 0 324 0 266 q 21 543 0 428 q 50 585 26 571 q 94 598 68 598 l 104 598 q 169 569 153 596 q 181 532 181 555 q 179 513 181 524 q 155 270 155 389 q 173 141 155 180 q 216 221 191 157 l 218 229 l 218 229 q 290 458 255 327 q 310 527 303 503 q 323 562 317 551 q 378 604 331 601 l 408 603 q 454 586 435 603 q 470 550 470 571 q 471 501 471 530 l 471 437 q 474 50 471 138 l 474 47 q 458 6 474 23 q 412 -11 442 -11 z "},"v":{"ha":493,"x_min":0,"x_max":450,"o":"m 224 0 l 221 0 q 109 73 153 0 q 20 361 48 173 q 4 488 8 437 q 0 550 0 543 q 2 572 0 559 q 20 606 5 589 q 69 625 40 625 l 97 625 q 169 591 149 625 q 182 551 182 569 q 205 349 185 471 q 251 156 224 228 q 298 304 275 207 q 332 526 320 401 q 353 565 336 551 q 392 580 370 580 q 435 560 419 580 q 450 521 450 543 q 433 384 450 492 q 349 93 406 199 q 294 25 324 46 q 224 0 262 1 z "},"w":{"ha":799,"x_min":0,"x_max":739,"o":"m 482 -1 l 473 0 q 349 126 395 1 q 273 23 318 58 q 210 3 241 3 q 187 5 197 3 q 50 218 97 31 q 4 509 14 357 q 0 570 0 562 q 3 594 0 578 q 20 624 6 609 q 64 642 38 642 l 95 641 q 147 625 131 640 q 173 571 173 602 l 173 570 q 195 332 176 460 q 239 149 214 204 q 291 304 269 185 q 296 339 296 334 l 296 340 q 294 358 294 349 q 298 385 294 371 q 332 433 308 415 q 387 452 357 452 q 449 430 422 452 q 481 372 475 408 q 538 151 509 198 l 551 163 q 616 496 616 265 q 615 537 616 517 l 615 538 q 630 580 615 562 q 671 600 646 597 l 675 601 q 718 585 700 601 q 738 541 736 568 q 739 499 739 522 q 734 375 739 451 q 705 210 730 299 q 628 62 681 121 q 482 -1 566 -1 z "},"x":{"ha":500,"x_min":0,"x_max":448,"o":"m 377 -1 q 357 1 366 -1 q 293 42 307 14 q 226 163 271 83 l 173 45 q 144 19 163 26 q 127 16 136 16 q 105 20 117 16 q 79 49 86 31 q 76 67 76 58 q 81 88 76 77 l 163 271 q 20 501 78 416 q 0 557 0 530 q 52 633 0 606 q 93 644 74 644 q 157 606 130 644 l 176 576 q 249 462 208 527 l 305 588 q 334 614 315 608 q 351 618 342 618 q 373 613 361 618 q 399 585 392 604 q 402 567 402 576 q 397 545 402 556 l 313 357 q 394 214 358 283 q 448 77 448 111 l 447 67 q 413 9 441 26 q 377 -1 394 -1 z "},"y":{"ha":584,"x_min":0,"x_max":508,"o":"m 269 -181 q 124 -116 186 -181 q 111 -82 111 -100 q 112 -65 111 -79 q 135 -38 114 -52 q 161 -31 148 -31 q 175 -32 165 -31 q 197 -46 184 -33 q 249 -78 220 -72 l 254 -78 q 277 -68 267 -78 q 321 53 307 -37 q 335 246 335 132 l 334 276 q 275 156 304 199 q 184 96 235 96 l 178 96 q 150 93 168 93 q 121 94 142 93 q 72 119 101 96 q 11 235 25 165 q 0 339 0 285 q 22 532 0 426 q 52 577 28 561 q 103 590 74 590 l 113 590 q 165 576 150 587 q 198 517 198 555 q 196 498 198 508 q 174 304 174 400 q 182 216 174 249 q 222 273 204 233 l 223 273 q 292 461 253 341 q 326 554 317 538 l 327 555 q 332 561 331 561 q 333 563 332 562 q 335 566 334 564 q 380 584 353 584 l 439 582 q 484 564 470 581 q 499 528 498 547 q 508 318 508 438 q 506 222 508 286 q 491 69 505 157 q 446 -75 477 -19 q 269 -181 382 -177 z "},"z":{"ha":516,"x_min":0,"x_max":465,"o":"m 192 -1 q 26 33 68 -1 q 0 89 0 55 q 6 122 0 99 q 143 342 22 184 q 277 503 228 453 l 269 503 q 254 503 263 503 l 254 505 q 106 495 173 501 l 102 495 q 69 507 83 495 q 52 545 52 522 q 64 578 52 564 q 98 596 76 593 q 301 606 214 606 q 397 602 355 606 q 458 552 438 595 q 465 517 465 534 q 450 472 465 493 q 336 341 404 412 q 231 223 283 286 q 161 113 178 160 q 240 106 190 106 q 357 113 289 106 l 363 113 q 394 102 380 113 q 413 62 413 87 q 401 30 413 45 q 368 12 390 15 q 192 -1 266 -1 z "},"{":{"ha":360,"x_min":0,"x_max":245,"o":"m 189 -113 q 136 -100 162 -113 q 58 -10 79 -75 q 43 75 43 41 q 42 122 42 109 q 45 202 42 162 q 47 271 47 237 q 45 335 47 304 q 16 405 41 359 l 4 427 q 0 448 0 438 q 9 475 0 464 q 43 649 43 544 l 43 656 q 121 883 43 816 q 209 920 160 916 l 212 920 q 235 911 226 920 q 245 887 245 901 l 241 850 q 214 820 238 825 q 197 781 208 816 q 184 656 186 745 q 144 440 184 534 l 149 431 q 174 372 162 406 q 191 216 191 320 q 187 113 191 177 q 184 50 184 77 q 191 1 184 22 l 191 -4 l 191 -7 q 192 -12 191 -10 l 197 -12 q 225 -33 218 -12 q 236 -82 236 -79 q 231 -98 236 -90 q 198 -112 222 -112 q 189 -113 194 -113 z "},"|":{"ha":199,"x_min":0,"x_max":91,"o":"m 46 20 q 22 21 31 20 q 6 33 13 23 q 0 64 0 43 l 15 751 q 22 788 15 779 q 45 802 30 797 q 60 806 56 806 q 76 794 69 806 q 83 754 83 782 l 91 58 q 87 33 91 42 q 74 22 83 24 q 46 20 65 20 z "},"}":{"ha":360,"x_min":0,"x_max":245,"o":"m 56 -113 q 47 -112 51 -113 q 14 -98 22 -112 q 9 -82 9 -90 q 20 -33 9 -79 q 48 -12 26 -12 l 53 -12 q 54 -7 54 -10 l 54 -4 l 54 1 q 60 50 60 22 q 58 113 60 77 q 54 216 54 170 q 72 372 54 320 q 96 431 83 406 l 100 440 q 61 656 61 534 q 48 781 59 745 q 31 820 37 816 q 3 850 7 825 l 0 887 q 9 911 0 901 q 33 920 19 920 l 36 920 q 124 883 85 916 q 201 656 201 816 l 201 649 q 236 475 201 544 q 245 448 245 464 q 241 427 245 438 l 229 405 q 200 335 204 359 q 197 271 197 304 q 200 202 197 237 q 203 122 203 162 q 202 75 203 109 q 186 -10 201 41 q 109 -100 166 -75 q 56 -113 83 -113 z "},"":{"ha":278,"x_min":0,"x_max":163,"o":"m 92 -60 q 80 -59 85 -60 l 87 -18 l 79 -59 q 19 -5 19 -47 l 3 556 q 22 601 3 584 q 68 617 41 617 l 87 617 q 143 594 123 614 q 163 543 163 574 l 156 -6 q 138 -45 156 -28 q 92 -60 119 -60 m 73 685 q 28 700 49 685 q 0 752 0 721 l 0 755 q 49 829 6 814 q 83 836 68 836 q 136 815 114 836 q 159 762 159 794 q 104 692 159 714 q 73 685 89 685 z "},"":{"ha":382,"x_min":0,"x_max":382,"o":"m 181 -112 q 158 -100 167 -112 q 150 -79 150 -91 l 161 23 q 86 62 123 34 q 0 280 0 134 q 32 441 0 364 q 223 602 96 590 l 230 666 q 241 687 232 680 q 263 694 251 694 q 287 682 277 694 q 294 662 294 674 l 287 596 q 363 504 363 567 q 346 470 363 483 q 317 460 333 460 q 300 463 309 460 q 274 479 281 469 l 235 121 q 264 135 248 125 q 289 168 279 149 q 332 195 304 195 l 340 193 q 376 170 364 190 q 382 148 382 160 q 378 129 382 139 q 277 31 345 61 q 224 17 251 20 l 214 -83 q 181 -112 210 -112 m 174 140 l 210 485 q 153 389 174 456 q 136 272 136 332 q 138 221 136 262 q 174 140 140 181 z "},"":{"ha":479,"x_min":0,"x_max":479,"o":"m 385 -2 q 243 30 326 -2 l 195 49 q 125 5 163 18 q 91 -1 108 -1 q 43 10 67 -1 q 0 79 0 32 q 12 119 0 99 q 90 153 31 153 q 106 152 98 153 q 126 276 126 212 q 115 372 126 315 l 59 372 q 37 381 46 372 q 28 404 28 391 q 37 427 28 418 q 60 436 46 435 l 102 436 l 93 473 q 81 564 81 522 q 161 748 81 677 q 286 795 221 795 q 355 783 320 795 q 387 768 372 777 q 446 669 441 731 q 436 648 446 655 q 420 642 429 642 q 386 648 417 642 q 365 668 370 652 q 355 689 362 680 q 314 709 339 709 q 293 705 304 709 q 250 659 262 690 q 236 609 238 628 q 235 569 235 589 q 252 435 235 506 l 328 435 q 351 426 342 435 q 360 403 359 416 q 350 380 359 389 q 328 371 341 372 l 264 372 q 277 241 277 307 q 245 115 277 176 q 273 103 260 109 q 387 77 338 77 q 432 83 412 77 l 440 83 q 463 77 452 83 q 479 43 479 66 q 473 20 479 32 q 385 -2 459 -2 z "},"":{"ha":538,"x_min":0,"x_max":538,"o":"m 286 -24 l 224 -23 q 186 -7 201 -22 q 170 32 170 9 l 168 85 l 100 85 q 77 95 86 85 q 68 117 68 104 q 77 139 68 130 q 100 149 86 148 l 170 149 l 171 194 l 100 194 q 77 203 86 195 q 68 226 68 212 q 77 249 68 239 q 100 258 86 258 l 173 258 l 174 313 q 20 644 63 527 l 8 673 q 0 711 0 694 q 9 745 0 729 q 64 777 24 770 q 87 780 82 779 q 99 780 93 780 q 168 724 142 780 q 168 724 168 724 l 192 669 q 301 428 256 519 l 449 713 q 491 739 463 739 q 512 734 501 739 q 538 691 538 720 q 533 669 538 680 l 350 313 l 349 257 l 393 257 q 415 248 406 256 q 425 225 424 239 q 415 202 424 212 q 393 193 406 193 l 347 193 l 346 148 l 393 147 q 415 138 406 147 q 425 116 424 129 q 415 94 424 102 q 393 84 406 85 l 344 85 l 342 31 q 325 -8 341 7 q 286 -24 309 -24 z "},"":{"ha":480,"x_min":0,"x_max":480,"o":"m 385 -2 q 243 30 325 -2 l 196 49 q 125 5 164 18 q 91 -1 108 -1 q 43 10 68 -1 q 0 79 0 32 q 12 119 0 99 q 90 153 31 153 q 106 152 98 153 q 126 275 126 213 l 126 293 l 72 294 q 50 303 58 294 q 40 326 41 312 q 50 348 41 339 q 72 357 59 357 l 118 357 q 109 404 115 378 l 72 404 q 50 413 58 404 q 40 435 41 422 q 50 458 41 449 q 73 467 59 467 l 94 467 q 81 564 81 519 q 161 748 81 677 q 286 795 221 795 q 355 783 320 795 q 387 768 372 777 q 445 669 441 731 q 437 648 445 655 q 420 642 429 642 q 386 648 417 642 q 365 669 369 652 q 355 689 361 680 q 314 709 339 709 q 292 705 303 709 q 251 659 263 690 q 236 608 239 628 q 234 566 234 588 q 245 467 234 518 l 337 467 q 359 457 351 466 q 369 435 368 448 q 359 412 368 421 q 337 403 350 403 l 258 403 l 268 357 l 337 356 q 359 347 351 356 q 369 324 368 338 q 359 302 368 311 q 336 292 350 293 l 275 293 q 278 253 278 273 q 246 115 278 182 q 273 103 260 109 q 387 77 338 77 q 432 83 412 77 l 440 83 q 463 77 451 83 q 480 43 480 66 q 473 20 480 32 q 385 -2 460 -2 z "},"":{"ha":199,"x_min":0,"x_max":91,"o":"m 30 446 q 9 449 16 446 q 3 464 3 452 l 3 467 l 0 781 q 9 798 0 794 q 39 805 18 802 q 54 806 49 806 q 82 783 81 806 l 91 464 q 71 448 91 450 q 30 446 58 446 m 31 17 q 9 20 16 17 q 3 34 3 22 l 3 38 l 0 348 q 9 364 0 360 q 35 371 18 368 q 54 373 48 373 q 82 349 81 373 l 91 34 q 86 23 91 27 q 70 18 81 19 q 31 17 58 17 z "},"":{"ha":515,"x_min":0,"x_max":400,"o":"m 174 -19 q 159 -18 167 -19 q 24 72 55 -12 q 17 113 17 93 q 39 182 17 150 l 53 179 q 60 177 56 178 l 62 176 q 106 153 96 170 q 110 135 110 145 q 109 129 110 132 q 106 106 106 116 q 110 90 106 98 q 154 68 117 73 l 174 69 q 198 94 198 69 q 159 154 198 120 l 144 166 q 84 217 117 186 q 0 378 2 292 q 64 498 1 452 q 79 507 71 503 l 87 511 q 122 524 108 520 q 45 677 49 595 q 110 798 47 751 q 220 831 161 831 q 307 814 256 831 l 305 811 q 365 743 351 787 q 370 707 370 725 q 357 647 370 678 l 352 633 l 332 639 l 330 639 q 270 673 270 648 q 272 683 270 678 q 279 708 279 696 q 275 724 279 717 q 246 739 267 739 q 230 734 238 739 q 217 722 221 730 q 212 704 212 713 q 281 603 212 667 l 300 585 l 301 585 l 302 583 q 356 528 328 558 q 400 427 400 479 q 372 347 400 385 q 252 286 332 298 q 253 285 252 285 l 253 284 q 297 243 275 265 q 352 129 352 187 q 349 94 352 120 q 313 36 345 68 q 193 -17 265 -9 l 192 -17 q 174 -19 185 -19 m 200 369 q 212 370 207 369 q 235 400 235 373 q 214 437 235 429 q 207 439 208 439 q 203 439 205 439 q 183 434 193 439 q 166 401 166 424 l 166 391 q 200 369 169 369 z "},"":{"ha":748,"x_min":0,"x_max":640,"o":"m 336 210 q 266 235 301 210 q 221 296 235 257 q 206 380 206 336 q 207 404 206 381 q 220 468 207 427 q 273 549 238 521 q 345 575 304 575 q 426 513 410 573 q 427 507 427 510 q 399 485 427 485 q 378 500 383 486 q 370 514 376 508 q 349 521 359 521 q 319 503 332 521 q 286 378 286 458 q 290 330 286 361 q 313 277 294 300 q 336 265 321 265 q 347 266 339 265 q 376 279 355 267 q 392 305 387 291 q 417 323 399 323 q 436 311 429 321 q 441 298 441 305 q 439 289 441 293 q 382 222 423 244 q 336 210 360 210 m 313 -12 l 303 -12 q 201 10 252 -12 q 8 275 45 78 q 0 366 0 317 q 5 451 0 406 q 205 791 33 688 q 328 824 261 824 q 420 806 376 824 q 534 720 488 777 q 607 591 581 663 q 640 399 640 498 q 629 286 640 341 q 517 73 600 151 q 313 -12 435 -5 m 293 60 q 412 100 349 60 q 555 289 521 168 q 569 393 569 340 q 560 476 569 435 q 534 550 553 509 q 420 699 488 645 q 330 736 375 736 q 269 716 300 736 q 195 633 226 686 q 146 520 164 580 q 126 409 129 460 q 124 355 124 382 q 127 286 124 328 q 147 191 130 243 q 201 98 164 138 q 293 60 239 60 z "},"":{"ha":439,"x_min":0,"x_max":0,"o":""},"":{"ha":753,"x_min":0,"x_max":644,"o":"m 281 212 q 258 221 269 212 q 246 252 247 233 q 247 399 247 310 q 247 521 247 489 q 258 560 248 549 q 286 572 271 572 q 332 581 307 581 q 347 581 341 581 q 419 535 393 572 q 441 463 441 504 l 440 447 q 379 350 432 384 q 444 252 428 308 q 444 243 444 248 q 436 223 444 233 q 413 213 429 213 q 392 219 401 213 q 380 235 383 225 q 317 315 367 283 q 315 242 316 252 q 294 214 312 221 q 281 212 289 212 m 318 387 q 355 403 338 391 q 383 463 383 425 q 373 500 383 481 q 339 524 363 519 l 331 524 q 320 523 326 524 q 318 387 319 506 m 315 -12 l 305 -12 q 201 10 254 -12 q 7 275 45 78 q 0 366 0 317 q 5 451 0 406 q 206 791 33 688 q 331 824 263 824 q 422 806 378 824 q 538 720 491 777 q 612 591 585 663 q 644 398 644 499 q 633 286 644 340 q 522 73 605 151 q 315 -12 438 -5 m 295 60 q 415 100 352 60 q 559 289 525 168 q 574 393 574 340 q 564 476 574 435 q 538 550 557 509 q 424 699 492 645 q 333 736 378 736 q 271 716 302 736 q 196 633 227 686 q 147 520 165 580 q 127 409 130 460 q 125 357 125 384 q 127 287 125 330 q 148 191 130 243 q 203 98 165 138 q 295 60 241 60 z "},"":{"ha":498,"x_min":0,"x_max":389,"o":"m 184 197 q 155 206 170 197 q 140 233 140 215 l 145 339 l 41 336 q 2 383 16 336 q 0 401 0 393 q 7 428 0 416 q 36 446 18 446 l 151 440 l 156 550 q 168 574 157 566 q 202 586 180 582 l 209 586 q 232 577 222 586 q 241 555 241 569 l 244 435 l 353 430 q 377 418 369 429 q 389 384 385 406 l 389 377 q 381 354 389 363 q 358 345 372 345 l 247 342 l 250 238 q 203 199 250 212 q 184 197 193 197 m 41 -102 q 2 -56 16 -102 q 0 -37 0 -45 q 7 -11 0 -22 q 36 7 18 7 l 353 -9 q 377 -21 369 -9 q 389 -55 385 -33 l 389 -62 q 381 -84 389 -75 q 359 -94 372 -94 l 41 -102 z "},"":{"ha":222,"x_min":1,"x_max":205,"o":"m 120 376 q 1 433 1 376 q 27 485 1 458 q 115 621 83 543 q 136 710 136 673 q 119 745 136 741 l 110 746 q 56 671 56 746 l 56 663 q 51 646 56 654 q 33 637 44 637 q 9 671 11 637 q 35 762 9 729 q 111 795 61 795 q 192 753 169 795 q 205 694 205 728 q 201 653 205 675 q 102 447 178 545 q 90 428 94 437 l 128 427 q 169 429 148 427 q 185 422 178 429 q 193 404 193 416 q 187 388 193 395 q 172 379 182 380 q 120 376 144 376 z "},"":{"ha":274,"x_min":14,"x_max":264,"o":"m 136 370 q 95 375 115 370 q 59 392 75 381 q 33 417 43 402 q 14 472 14 442 q 21 497 14 490 q 39 505 28 505 q 51 502 43 505 q 62 492 58 498 q 66 479 66 486 l 66 472 q 92 432 66 446 q 119 425 106 425 q 150 435 136 425 q 174 463 164 446 q 189 516 189 490 q 174 557 189 540 q 133 580 157 580 q 120 577 127 580 q 108 575 114 575 q 77 595 87 575 q 74 610 74 602 q 78 625 74 618 q 99 642 85 638 q 152 677 133 649 q 168 728 168 702 q 163 748 168 743 q 149 750 157 750 q 111 737 127 750 q 96 713 100 728 q 69 694 92 694 q 56 697 62 694 q 45 717 45 704 l 45 722 q 77 774 52 753 q 149 800 107 800 q 222 764 198 800 q 237 711 237 742 q 202 626 237 663 q 237 597 222 615 q 264 513 264 564 q 258 467 264 490 q 217 400 245 427 q 136 370 183 370 z "},"":{"ha":111,"x_min":5,"x_max":106,"o":"m 50 376 q 15 395 25 376 q 5 489 5 412 q 24 734 5 601 q 18 752 18 742 q 33 779 18 770 l 54 794 q 75 803 63 803 q 89 799 82 803 q 106 770 106 790 q 85 442 85 544 l 85 418 q 74 387 85 399 q 50 376 64 376 z "},"":{"ha":1032,"x_min":0,"x_max":0,"o":""},"":{"ha":499,"x_min":43,"x_max":475,"o":"m 134 16 q 115 25 123 16 l 107 32 q 88 95 88 54 q 93 134 88 113 l 239 756 q 274 795 249 795 q 300 778 288 795 q 315 727 315 753 q 313 705 315 715 l 172 63 q 134 16 159 16 m 418 -2 q 389 16 398 -1 q 382 92 382 29 l 382 123 l 250 119 q 228 130 235 119 q 222 146 222 138 q 284 357 222 151 l 288 374 q 324 399 297 399 q 353 385 342 399 q 359 363 359 375 q 300 170 359 357 l 385 172 q 401 342 390 262 q 428 397 408 381 q 448 406 437 406 q 471 392 463 406 q 475 375 475 385 q 465 274 471 339 q 452 47 452 119 l 452 38 q 441 7 452 20 q 418 -2 432 -2 m 87 376 q 52 395 62 376 q 43 489 43 412 q 61 734 43 601 q 56 752 56 742 q 70 779 56 770 l 92 794 q 112 803 100 803 q 126 799 119 803 q 143 770 143 790 q 123 442 123 544 l 123 418 q 111 387 123 399 q 87 376 101 376 z "},"":{"ha":455,"x_min":11,"x_max":438,"o":"m 113 16 q 94 25 102 16 l 86 32 q 67 95 67 54 q 72 134 67 113 l 218 756 q 253 795 228 795 q 279 778 267 795 q 294 727 294 753 q 292 705 294 715 l 151 63 q 113 16 138 16 m 55 376 q 20 395 31 376 q 11 489 11 412 q 29 734 11 601 q 24 752 24 742 q 38 779 24 770 l 60 794 q 80 803 68 803 q 94 799 87 803 q 111 770 111 790 q 91 442 91 544 l 91 418 q 79 387 91 399 q 55 376 69 376 m 353 3 q 234 60 234 3 q 260 112 234 85 q 348 248 316 170 q 370 337 370 300 q 353 372 370 368 l 343 373 q 289 298 289 373 l 290 290 q 284 273 290 281 q 266 264 277 264 q 243 298 244 264 q 269 389 243 356 q 344 422 294 422 q 425 380 402 422 q 438 321 438 355 q 434 280 438 302 q 335 74 411 172 q 323 55 328 64 l 361 54 q 402 56 381 54 q 419 49 412 56 q 426 31 426 43 q 420 15 426 22 q 405 6 415 7 q 353 3 377 3 z "},"":{"ha":610,"x_min":9,"x_max":604,"o":"m 251 16 q 231 25 239 16 l 224 32 q 205 95 205 54 q 210 134 205 113 l 356 756 q 391 795 366 795 q 416 778 405 795 q 431 727 431 753 q 429 705 431 715 l 288 63 q 251 16 276 16 m 547 -2 q 517 16 527 -1 q 511 92 511 29 l 511 123 l 378 119 q 357 130 364 119 q 351 146 351 138 q 413 357 351 151 l 417 374 q 453 399 426 399 q 481 385 471 399 q 488 363 488 375 q 429 170 488 357 l 513 172 q 530 342 519 262 q 557 397 536 381 q 576 406 566 406 q 600 392 592 406 q 604 375 604 385 q 594 274 600 339 q 581 47 581 119 l 581 38 q 570 7 581 20 q 547 -2 561 -2 m 130 370 q 90 375 109 370 q 54 392 70 381 q 27 417 38 402 q 9 472 9 442 q 16 497 9 490 q 33 505 22 505 q 45 502 38 505 q 57 492 53 498 q 61 479 61 486 l 60 472 q 86 432 60 446 q 114 425 100 425 q 144 435 130 425 q 168 463 159 446 q 183 516 183 490 q 169 557 183 540 q 127 580 152 580 q 115 577 121 580 q 102 575 109 575 q 72 595 82 575 q 68 610 68 602 q 73 625 68 618 q 94 642 79 638 q 146 677 127 649 q 163 728 163 702 q 157 748 163 743 q 144 750 152 750 q 106 737 121 750 q 91 713 94 728 q 64 694 86 694 q 51 697 57 694 q 39 717 39 704 l 40 722 q 71 774 47 753 q 144 800 102 800 q 217 764 193 800 q 231 711 231 742 q 197 626 231 663 q 231 597 217 615 q 258 513 258 564 q 252 467 258 490 q 212 400 240 427 q 130 370 178 370 z "},"":{"ha":569,"x_min":0,"x_max":454,"o":"m 254 697 q 208 712 229 697 q 180 764 180 733 l 180 768 q 229 841 185 825 q 265 847 247 847 q 316 828 295 847 q 340 772 340 805 q 285 703 340 728 q 254 697 269 697 m 220 -43 q 165 -39 193 -43 q 22 50 65 -21 q 0 132 0 87 q 40 268 0 194 q 115 391 69 321 q 162 470 142 429 q 189 568 182 511 q 230 629 193 611 q 261 637 245 637 q 309 621 284 637 q 344 565 339 600 q 345 543 345 554 q 336 483 345 517 q 247 309 313 403 q 163 141 166 193 q 176 117 163 129 q 205 100 189 106 q 248 90 228 90 q 311 123 287 90 q 338 182 331 149 q 359 216 343 204 q 395 229 375 229 q 441 206 425 229 q 454 171 454 191 q 446 131 454 155 l 447 130 l 440 114 q 357 0 410 37 q 249 -42 304 -37 q 220 -43 235 -43 z "},"":{"ha":653,"x_min":0,"x_max":591,"o":"m 494 -22 l 492 -22 l 492 -21 q 432 6 456 -18 q 407 65 409 29 q 395 211 404 138 l 132 211 q 120 43 123 123 q 102 2 119 18 q 59 -15 85 -15 q 17 3 33 -14 q 0 46 0 21 l 0 47 q 28 366 4 199 q 123 704 59 582 l 125 706 q 194 791 154 761 q 290 825 239 825 q 330 821 309 825 q 505 598 440 789 q 577 249 555 448 q 591 64 591 117 q 568 5 591 28 q 494 -22 541 -22 m 380 331 q 330 575 359 475 q 273 695 301 675 q 225 640 257 689 q 146 331 175 539 l 380 331 m 311 864 l 308 864 q 290 871 298 864 l 153 984 q 138 1018 138 998 q 146 1044 138 1031 q 181 1062 159 1062 q 214 1047 200 1062 q 331 913 272 980 q 338 895 338 905 q 331 876 338 885 q 311 864 323 866 z "},"":{"ha":653,"x_min":0,"x_max":591,"o":"m 494 -22 l 492 -22 l 492 -21 q 432 6 456 -18 q 407 65 409 29 q 395 211 404 138 l 132 211 q 120 43 123 123 q 102 2 119 18 q 59 -15 85 -15 q 17 3 33 -14 q 0 46 0 21 l 0 47 q 28 366 4 199 q 123 704 59 582 l 125 706 q 194 791 154 761 q 290 825 239 825 q 330 821 309 825 q 505 598 440 789 q 577 249 555 448 q 591 64 591 117 q 568 5 591 28 q 494 -22 541 -22 m 380 331 q 330 575 359 475 q 273 695 301 675 q 225 640 257 689 q 146 331 175 539 l 380 331 m 296 864 q 271 878 280 864 q 265 895 265 886 q 273 913 265 905 l 390 1047 q 422 1062 403 1062 q 457 1044 444 1062 q 466 1017 466 1031 q 465 1006 466 1015 q 451 984 464 996 l 313 871 q 296 864 305 864 z "},"":{"ha":653,"x_min":0,"x_max":591,"o":"m 494 -22 l 492 -22 l 492 -21 q 432 6 456 -18 q 407 65 409 29 q 395 211 404 138 l 132 211 q 120 43 123 123 q 102 2 119 18 q 59 -15 85 -15 q 17 3 33 -14 q 0 46 0 21 l 0 47 q 28 366 4 199 q 123 704 59 582 l 125 706 q 194 791 154 761 q 290 825 239 825 q 330 821 309 825 q 505 598 440 789 q 577 249 555 448 q 591 64 591 117 q 568 5 591 28 q 494 -22 541 -22 m 380 331 q 330 575 359 475 q 273 695 301 675 q 225 640 257 689 q 146 331 175 539 l 380 331 m 232 862 q 192 890 209 862 l 189 895 q 185 914 185 905 q 193 939 185 926 l 275 1052 q 293 1061 281 1061 q 313 1048 307 1061 l 382 918 q 386 902 386 910 q 379 882 386 892 q 353 869 369 869 q 347 870 350 869 q 317 891 323 875 l 292 943 l 256 873 q 232 862 245 862 z "},"":{"ha":653,"x_min":0,"x_max":591,"o":"m 494 -22 l 492 -22 l 492 -21 q 432 6 456 -18 q 407 65 409 29 q 395 211 404 138 l 132 211 q 120 43 123 123 q 102 2 119 18 q 59 -15 85 -15 q 17 3 33 -14 q 0 46 0 21 l 0 47 q 28 366 4 199 q 123 704 59 582 l 125 706 q 194 791 154 761 q 290 825 239 825 q 330 821 309 825 q 505 598 440 789 q 577 249 555 448 q 591 64 591 117 q 568 5 591 28 q 494 -22 541 -22 m 380 331 q 330 575 359 475 q 273 695 301 675 q 225 640 257 689 q 146 331 175 539 l 380 331 m 370 866 q 280 904 326 866 q 264 909 273 909 q 229 899 248 909 q 211 895 220 895 q 198 896 207 895 q 180 909 189 898 q 172 934 172 920 q 194 970 172 958 q 264 989 232 989 q 331 965 301 989 q 370 946 355 946 q 381 949 376 946 q 404 957 393 957 q 424 951 414 957 q 446 918 444 939 q 433 888 446 900 q 370 866 404 866 z "},"":{"ha":653,"x_min":0,"x_max":591,"o":"m 494 -22 l 492 -22 l 492 -21 q 432 6 456 -18 q 407 65 409 29 q 395 211 404 138 l 132 211 q 120 43 123 123 q 102 2 119 18 q 59 -15 85 -15 q 17 3 33 -14 q 0 46 0 21 l 0 47 q 28 366 4 199 q 123 704 59 582 l 125 706 q 194 791 154 761 q 290 825 239 825 q 330 821 309 825 q 505 598 440 789 q 577 249 555 448 q 591 64 591 117 q 568 5 591 28 q 494 -22 541 -22 m 380 331 q 330 575 359 475 q 273 695 301 675 q 225 640 257 689 q 146 331 175 539 l 380 331 m 224 876 q 181 893 197 876 q 165 938 165 910 q 183 984 166 967 q 225 1000 201 1000 q 270 984 254 1000 q 286 943 286 969 q 265 892 286 912 q 224 876 248 876 m 370 876 q 327 893 342 876 q 311 938 311 910 q 328 984 311 967 q 370 1000 345 1000 q 415 984 399 1000 q 431 943 431 969 q 410 892 431 912 q 370 876 393 876 z "},"":{"ha":653,"x_min":0,"x_max":591,"o":"m 494 -22 l 492 -22 l 492 -21 q 432 6 456 -18 q 407 65 409 29 q 395 211 404 138 l 132 211 q 120 43 123 123 q 102 2 119 18 q 59 -15 85 -15 q 17 3 33 -14 q 0 46 0 21 l 0 47 q 28 366 4 199 q 123 704 59 582 l 125 706 q 194 791 154 761 q 290 825 239 825 q 330 821 309 825 q 505 598 440 789 q 577 249 555 448 q 591 64 591 117 q 568 5 591 28 q 494 -22 541 -22 m 380 331 q 330 575 359 475 q 273 695 301 675 q 225 640 257 689 q 146 331 175 539 l 380 331 m 295 864 q 238 882 260 865 q 209 949 209 904 q 220 1003 209 978 q 297 1059 243 1059 q 359 1030 336 1059 q 378 962 378 1004 q 345 881 377 908 q 295 864 324 864 m 289 921 q 303 937 296 921 q 309 964 308 947 q 300 998 309 987 q 275 943 276 979 q 279 924 275 928 l 279 923 q 281 922 281 922 q 283 921 282 922 q 286 921 284 921 l 289 921 z "},"":{"ha":653,"x_min":0,"x_max":951,"o":"m 380 331 q 330 575 359 475 q 273 695 301 675 q 225 640 257 689 q 146 331 175 539 l 380 331 m 557 -3 q 494 -22 532 -22 l 492 -22 l 492 -21 q 432 6 456 -18 q 407 65 409 29 q 395 211 404 138 l 132 211 q 120 43 123 123 q 102 2 119 18 q 59 -15 85 -15 q 17 3 33 -14 q 0 46 0 21 l 0 47 q 28 366 4 199 q 123 704 59 582 l 125 706 q 194 791 154 761 q 290 825 239 825 q 330 821 309 825 q 505 598 440 789 q 520 549 513 574 q 521 703 520 648 q 532 764 521 742 q 547 785 536 775 q 570 802 558 794 q 591 814 582 809 l 600 818 q 670 826 604 821 q 732 828 696 828 q 862 823 786 828 q 910 798 892 819 q 926 755 926 779 l 925 745 q 903 703 922 718 q 866 691 888 691 q 854 692 860 691 q 751 701 798 701 q 688 691 713 701 q 684 474 686 616 l 810 474 q 860 454 840 474 q 880 406 880 435 q 860 358 880 378 q 810 338 840 338 l 683 338 q 680 106 682 205 q 722 106 698 106 q 873 114 791 106 l 881 115 q 925 100 905 115 q 950 57 945 85 q 951 47 951 52 q 935 4 951 24 q 889 -20 919 -16 q 720 -30 802 -30 q 632 -27 664 -30 q 597 -23 600 -24 l 576 -14 q 557 -3 566 -9 z "},"":{"ha":949,"x_min":0,"x_max":549,"o":"m 312 -22 q 315 -38 315 -28 l 315 -51 q 359 -68 342 -51 q 385 -134 385 -94 q 374 -184 385 -159 q 298 -248 349 -235 q 264 -254 276 -254 q 241 -243 251 -254 q 231 -218 231 -233 q 234 -209 231 -213 q 265 -190 250 -191 q 296 -176 279 -190 q 321 -138 319 -157 q 309 -127 317 -127 q 277 -142 298 -127 q 237 -158 250 -158 q 220 -132 220 -158 q 234 -49 220 -128 q 239 -27 235 -41 q 245 -14 242 -20 q 140 35 193 -1 q 53 137 85 73 q 0 380 0 239 q 4 458 0 406 q 31 581 8 511 q 155 772 74 707 q 325 832 230 832 q 430 806 387 832 q 515 689 494 766 q 517 673 517 681 q 505 640 517 656 q 467 622 493 623 l 451 622 q 402 658 415 623 q 384 690 397 675 q 333 705 357 705 q 264 664 294 705 q 209 543 228 616 q 188 373 188 461 q 202 238 188 303 q 250 134 216 173 q 273 115 256 125 q 307 106 286 106 q 331 109 313 106 q 397 141 349 111 q 435 201 422 167 q 458 231 442 220 q 490 241 473 241 l 494 241 q 539 214 524 238 q 549 182 549 199 q 546 161 549 172 q 493 70 528 111 q 413 5 459 29 q 312 -22 363 -20 z "},"":{"ha":499,"x_min":0,"x_max":434,"o":"m 203 -30 q 115 -27 147 -30 q 81 -23 83 -24 l 59 -14 q 26 7 38 -3 q 0 70 0 33 q 3 472 2 251 q 4 703 3 629 q 15 764 4 742 q 31 785 20 775 q 53 802 41 794 q 74 814 65 809 l 83 818 q 153 826 87 821 q 215 828 179 828 q 345 823 269 828 q 393 798 376 819 q 409 755 409 779 l 408 745 q 386 703 405 718 q 349 691 372 691 q 337 692 343 691 q 235 701 281 701 q 172 691 196 701 q 168 474 169 616 l 294 474 q 343 454 323 474 q 363 406 363 435 q 343 358 363 378 q 294 338 323 338 l 166 338 q 163 106 165 205 q 205 106 181 106 q 357 114 275 106 l 364 115 q 408 100 388 115 q 433 57 429 85 q 434 47 434 52 q 418 4 434 24 q 372 -20 402 -16 q 203 -30 285 -30 m 230 864 l 227 864 q 208 871 216 864 l 71 984 q 56 1018 56 998 q 64 1044 56 1031 q 100 1062 78 1062 q 132 1047 119 1062 q 250 913 191 980 q 256 895 256 905 q 249 876 256 885 q 230 864 242 866 z "},"":{"ha":499,"x_min":0,"x_max":434,"o":"m 203 -30 q 115 -27 147 -30 q 81 -23 83 -24 l 59 -14 q 26 7 38 -3 q 0 70 0 33 q 3 472 2 251 q 4 703 3 629 q 15 764 4 742 q 31 785 20 775 q 53 802 41 794 q 74 814 65 809 l 83 818 q 153 826 87 821 q 215 828 179 828 q 345 823 269 828 q 393 798 376 819 q 409 755 409 779 l 408 745 q 386 703 405 718 q 349 691 372 691 q 337 692 343 691 q 235 701 281 701 q 172 691 196 701 q 168 474 169 616 l 294 474 q 343 454 323 474 q 363 406 363 435 q 343 358 363 378 q 294 338 323 338 l 166 338 q 163 106 165 205 q 205 106 181 106 q 357 114 275 106 l 364 115 q 408 100 388 115 q 433 57 429 85 q 434 47 434 52 q 418 4 434 24 q 372 -20 402 -16 q 203 -30 285 -30 m 212 864 q 187 878 197 864 q 182 895 182 886 q 189 913 182 905 l 307 1047 q 339 1062 319 1062 q 374 1044 360 1062 q 382 1017 382 1031 q 381 1006 382 1015 q 368 984 380 996 l 230 871 q 212 864 222 864 z "},"":{"ha":499,"x_min":0,"x_max":434,"o":"m 203 -30 q 115 -27 147 -30 q 81 -23 83 -24 l 59 -14 q 26 7 38 -3 q 0 70 0 33 q 3 472 2 251 q 4 703 3 629 q 15 764 4 742 q 31 785 20 775 q 53 802 41 794 q 74 814 65 809 l 83 818 q 153 826 87 821 q 215 828 179 828 q 345 823 269 828 q 393 798 376 819 q 409 755 409 779 l 408 745 q 386 703 405 718 q 349 691 372 691 q 337 692 343 691 q 235 701 281 701 q 172 691 196 701 q 168 474 169 616 l 294 474 q 343 454 323 474 q 363 406 363 435 q 343 358 363 378 q 294 338 323 338 l 166 338 q 163 106 165 205 q 205 106 181 106 q 357 114 275 106 l 364 115 q 408 100 388 115 q 433 57 429 85 q 434 47 434 52 q 418 4 434 24 q 372 -20 402 -16 q 203 -30 285 -30 m 157 862 q 117 890 134 862 l 114 895 q 110 914 110 905 q 117 939 110 926 l 199 1052 q 218 1061 206 1061 q 238 1048 231 1061 l 307 918 q 311 902 311 910 q 304 882 311 892 q 278 869 294 869 q 272 870 275 869 q 242 891 248 875 l 216 943 l 181 873 q 157 862 170 862 z "},"":{"ha":499,"x_min":0,"x_max":434,"o":"m 203 -30 q 115 -27 147 -30 q 81 -23 83 -24 l 59 -14 q 26 7 38 -3 q 0 70 0 33 q 3 472 2 251 q 4 703 3 629 q 15 764 4 742 q 31 785 20 775 q 53 802 41 794 q 74 814 65 809 l 83 818 q 153 826 87 821 q 215 828 179 828 q 345 823 269 828 q 393 798 376 819 q 409 755 409 779 l 408 745 q 386 703 405 718 q 349 691 372 691 q 337 692 343 691 q 235 701 281 701 q 172 691 196 701 q 168 474 169 616 l 294 474 q 343 454 323 474 q 363 406 363 435 q 343 358 363 378 q 294 338 323 338 l 166 338 q 163 106 165 205 q 205 106 181 106 q 357 114 275 106 l 364 115 q 408 100 388 115 q 433 57 429 85 q 434 47 434 52 q 418 4 434 24 q 372 -20 402 -16 q 203 -30 285 -30 m 151 876 q 108 893 124 876 q 92 938 92 910 q 110 984 93 967 q 152 1000 127 1000 q 197 984 180 1000 q 213 943 213 969 q 192 892 212 912 q 151 876 175 876 m 296 876 q 253 893 269 876 q 237 938 237 910 q 255 984 238 967 q 296 1000 272 1000 q 342 984 326 1000 q 358 943 358 969 q 337 892 357 912 q 296 876 320 876 z "},"":{"ha":324,"x_min":0,"x_max":279,"o":"m 205 -22 l 58 -22 q 17 -6 34 -22 q 0 31 0 9 q 17 67 0 52 q 58 83 34 83 l 60 87 q 62 94 62 92 l 62 95 q 50 349 50 162 q 54 536 50 433 q 65 692 58 640 q 66 703 66 696 q 65 715 66 709 q 65 726 65 722 l 64 730 q 28 745 41 730 q 16 782 16 760 q 33 819 16 804 q 74 834 50 834 l 221 834 q 262 819 245 834 q 279 782 279 804 q 262 745 279 760 q 221 730 245 730 l 220 705 q 215 538 218 657 q 209 321 209 333 q 203 112 205 193 l 204 94 l 205 83 q 245 67 229 83 q 262 31 262 52 q 245 -6 262 9 q 205 -22 229 -22 m 178 864 l 175 864 q 157 871 165 864 l 20 984 q 5 1018 5 998 q 13 1044 5 1031 q 48 1062 26 1062 q 81 1047 67 1062 q 198 913 139 980 q 205 895 205 905 q 198 876 205 885 q 178 864 191 866 z "},"":{"ha":324,"x_min":0,"x_max":322,"o":"m 205 -22 l 58 -22 q 17 -6 34 -22 q 0 31 0 9 q 17 67 0 52 q 58 83 34 83 l 60 87 q 62 94 62 92 l 62 95 q 50 349 50 162 q 54 536 50 433 q 65 692 58 640 q 66 703 66 696 q 65 715 66 709 q 65 726 65 722 l 64 730 q 28 745 41 730 q 16 782 16 760 q 33 819 16 804 q 74 834 50 834 l 221 834 q 262 819 245 834 q 279 782 279 804 q 262 745 279 760 q 221 730 245 730 l 220 705 q 215 538 218 657 q 209 321 209 333 q 203 112 205 193 l 204 94 l 205 83 q 245 67 229 83 q 262 31 262 52 q 245 -6 262 9 q 205 -22 229 -22 m 152 864 q 127 878 136 864 q 121 895 121 886 q 129 913 121 905 l 246 1047 q 279 1062 259 1062 q 313 1044 300 1062 q 322 1017 322 1031 q 321 1006 322 1015 q 307 984 320 996 l 170 871 q 152 864 161 864 z "},"":{"ha":324,"x_min":0,"x_max":279,"o":"m 205 -22 l 58 -22 q 17 -6 34 -22 q 0 31 0 9 q 17 67 0 52 q 58 83 34 83 l 60 87 q 62 94 62 92 l 62 95 q 50 349 50 162 q 54 536 50 433 q 65 692 58 640 q 66 703 66 696 q 65 715 66 709 q 65 726 65 722 l 64 730 q 28 745 41 730 q 16 782 16 760 q 33 819 16 804 q 74 834 50 834 l 221 834 q 262 819 245 834 q 279 782 279 804 q 262 745 279 760 q 221 730 245 730 l 220 705 q 215 538 218 657 q 209 321 209 333 q 203 112 205 193 l 204 94 l 205 83 q 245 67 229 83 q 262 31 262 52 q 245 -6 262 9 q 205 -22 229 -22 m 92 876 q 52 904 69 876 l 50 909 q 45 928 45 918 q 53 952 45 940 l 135 1065 q 153 1075 142 1075 q 174 1062 167 1075 l 242 931 q 246 916 246 924 q 239 896 246 906 q 214 883 229 883 q 208 884 210 883 q 178 905 184 888 l 152 956 l 117 887 q 92 876 106 876 z "},"":{"ha":324,"x_min":0,"x_max":281,"o":"m 205 -22 l 58 -22 q 17 -6 34 -22 q 0 31 0 9 q 17 67 0 52 q 58 83 34 83 l 60 87 q 62 94 62 92 l 62 95 q 50 349 50 162 q 54 536 50 433 q 65 692 58 640 q 66 703 66 696 q 65 715 66 709 q 65 726 65 722 l 64 730 q 28 745 41 730 q 16 782 16 760 q 33 819 16 804 q 74 834 50 834 l 221 834 q 262 819 245 834 q 279 782 279 804 q 262 745 279 760 q 221 730 245 730 l 220 705 q 215 538 218 657 q 209 321 209 333 q 203 112 205 193 l 204 94 l 205 83 q 245 67 229 83 q 262 31 262 52 q 245 -6 262 9 q 205 -22 229 -22 m 74 876 q 31 893 47 876 q 15 938 15 910 q 33 984 16 967 q 75 1000 50 1000 q 119 984 103 1000 q 136 943 136 969 q 115 892 135 912 q 74 876 98 876 m 219 876 q 176 893 192 876 q 160 938 160 910 q 178 984 161 967 q 219 1000 195 1000 q 264 984 248 1000 q 281 943 281 969 q 260 892 280 912 q 219 876 243 876 z "},"":{"ha":614,"x_min":-111,"x_max":562,"o":"m 162 342 q 159 113 161 214 q 176 112 167 112 q 247 122 208 112 q 323 171 286 133 q 395 304 370 224 q 416 444 416 373 q 415 469 416 456 q 351 633 408 582 q 269 679 310 667 q 233 685 249 685 q 197 677 213 685 q 166 641 174 665 q 163 434 164 556 l 243 430 q 267 418 258 429 q 278 384 275 406 l 279 377 q 270 354 279 363 q 248 345 262 345 l 162 342 m 3 442 l 3 475 q 4 707 3 632 l 4 709 q 9 754 4 731 q 33 795 15 777 q 87 815 54 815 q 124 806 107 815 q 235 835 175 835 q 317 823 262 835 q 447 749 372 812 q 562 487 549 659 q 562 454 562 471 q 530 257 562 357 q 430 83 497 157 q 178 -22 332 -22 q 77 -11 117 -20 q 45 -3 60 -10 q 32 1 34 1 l 33 5 l 32 5 q 26 10 28 8 q 0 73 1 36 q 2 338 1 197 l -69 336 q -109 383 -95 336 q -111 401 -111 393 q -104 428 -111 416 q -75 446 -93 446 l 3 442 z "},"":{"ha":647,"x_min":0,"x_max":560,"o":"m 473 -23 q 460 -22 467 -23 q 371 34 400 -18 l 135 471 l 136 56 q 116 8 135 27 q 68 -12 97 -10 q 21 8 40 -11 q 1 56 1 27 l 0 733 q 28 801 1 774 q 96 829 57 829 l 111 829 q 199 771 171 825 l 423 357 l 425 754 q 445 801 426 782 q 493 821 465 820 q 541 801 522 820 q 560 753 559 782 l 556 62 l 555 54 q 516 -12 549 5 q 473 -23 495 -23 m 370 866 q 280 904 326 866 q 264 909 273 909 q 229 899 248 909 q 211 895 220 895 q 198 896 207 895 q 180 909 189 898 q 172 934 172 920 q 194 970 172 958 q 264 989 232 989 q 331 965 301 989 q 370 946 355 946 q 381 949 376 946 q 404 957 393 957 q 424 951 414 957 q 446 918 444 939 q 433 888 446 900 q 370 866 404 866 z "},"":{"ha":616,"x_min":0,"x_max":550,"o":"m 271 -24 l 262 -24 q 100 53 178 -24 q 24 189 56 96 q 0 355 0 254 q 170 778 0 655 q 280 814 224 814 q 366 793 322 814 q 526 569 484 726 q 550 386 550 477 q 538 258 550 321 q 271 -24 478 -5 m 268 106 q 372 174 338 116 q 414 283 405 232 q 423 391 423 338 q 399 549 423 460 q 309 677 376 639 l 300 680 l 299 681 q 281 677 288 680 q 212 574 241 653 q 177 369 177 481 q 198 207 177 272 q 268 106 225 123 m 314 864 l 311 864 q 292 871 300 864 l 155 984 q 140 1018 140 998 q 149 1044 140 1031 q 184 1062 162 1062 q 216 1047 203 1062 q 334 913 275 980 q 340 895 340 905 q 333 876 340 885 q 314 864 326 866 z "},"":{"ha":616,"x_min":0,"x_max":550,"o":"m 271 -24 l 262 -24 q 100 53 178 -24 q 24 189 56 96 q 0 355 0 254 q 170 778 0 655 q 280 814 224 814 q 366 793 322 814 q 526 569 484 726 q 550 386 550 477 q 538 258 550 321 q 271 -24 478 -5 m 268 106 q 372 174 338 116 q 414 283 405 232 q 423 391 423 338 q 399 549 423 460 q 309 677 376 639 l 300 680 l 299 681 q 281 677 288 680 q 212 574 241 653 q 177 369 177 481 q 198 207 177 272 q 268 106 225 123 m 283 864 q 258 878 268 864 q 253 895 253 886 q 260 913 253 905 l 378 1047 q 410 1062 391 1062 q 445 1044 431 1062 q 454 1017 454 1031 q 453 1006 454 1015 q 439 984 452 996 l 301 871 q 283 864 293 864 z "},"":{"ha":616,"x_min":0,"x_max":550,"o":"m 271 -24 l 262 -24 q 100 53 178 -24 q 24 189 56 96 q 0 355 0 254 q 170 778 0 655 q 280 814 224 814 q 366 793 322 814 q 526 569 484 726 q 550 386 550 477 q 538 258 550 321 q 271 -24 478 -5 m 268 106 q 372 174 338 116 q 414 283 405 232 q 423 391 423 338 q 399 549 423 460 q 309 677 376 639 l 300 680 l 299 681 q 281 677 288 680 q 212 574 241 653 q 177 369 177 481 q 198 207 177 272 q 268 106 225 123 m 221 865 q 181 894 198 865 l 178 899 q 174 918 174 908 q 182 942 174 930 l 264 1055 q 282 1065 271 1065 q 302 1052 296 1065 l 371 921 q 375 905 375 913 q 368 886 375 896 q 342 873 358 873 q 336 873 339 873 q 307 895 313 878 l 281 946 l 245 877 q 221 865 235 865 z "},"":{"ha":616,"x_min":0,"x_max":550,"o":"m 271 -24 l 262 -24 q 100 53 178 -24 q 24 189 56 96 q 0 355 0 254 q 170 778 0 655 q 280 814 224 814 q 366 793 322 814 q 526 569 484 726 q 550 386 550 477 q 538 258 550 321 q 271 -24 478 -5 m 268 106 q 372 174 338 116 q 414 283 405 232 q 423 391 423 338 q 399 549 423 460 q 309 677 376 639 l 300 680 l 299 681 q 281 677 288 680 q 212 574 241 653 q 177 369 177 481 q 198 207 177 272 q 268 106 225 123 m 349 866 q 259 904 304 866 q 243 909 252 909 q 208 899 227 909 q 190 895 199 895 q 177 896 186 895 q 159 909 168 898 q 151 934 151 920 q 173 970 151 958 q 243 989 211 989 q 310 965 280 989 q 349 946 334 946 q 360 949 355 946 q 383 957 372 957 q 403 951 393 957 q 425 918 423 939 q 412 888 425 900 q 349 866 383 866 z "},"":{"ha":616,"x_min":0,"x_max":550,"o":"m 271 -24 l 262 -24 q 100 53 178 -24 q 24 189 56 96 q 0 355 0 254 q 170 778 0 655 q 280 814 224 814 q 366 793 322 814 q 526 569 484 726 q 550 386 550 477 q 538 258 550 321 q 271 -24 478 -5 m 268 106 q 372 174 338 116 q 414 283 405 232 q 423 391 423 338 q 399 549 423 460 q 309 677 376 639 l 300 680 l 299 681 q 281 677 288 680 q 212 574 241 653 q 177 369 177 481 q 198 207 177 272 q 268 106 225 123 m 206 876 q 163 893 179 876 q 147 938 147 910 q 165 984 148 967 q 207 1000 182 1000 q 252 984 235 1000 q 268 943 268 969 q 247 892 267 912 q 206 876 230 876 m 351 876 q 308 893 324 876 q 292 938 292 910 q 310 984 293 967 q 351 1000 327 1000 q 397 984 380 1000 q 413 943 413 969 q 392 892 412 912 q 351 876 375 876 z "},"":{"ha":427,"x_min":0,"x_max":318,"o":"m 267 233 q 243 243 253 233 l 162 320 l 92 245 q 71 236 83 236 q 30 250 54 236 q 0 296 0 268 q 10 319 0 309 l 89 389 l 14 460 q 5 481 5 468 q 19 522 5 498 q 64 551 37 551 q 87 542 78 551 l 163 457 l 245 531 q 266 540 255 540 q 277 538 269 540 q 302 524 285 537 q 318 497 318 512 q 309 474 318 484 l 227 387 l 300 306 q 309 286 309 297 q 307 275 309 283 q 293 249 306 267 q 267 233 281 234 z "},"":{"ha":616,"x_min":0,"x_max":550,"o":"m 303 115 q 372 174 347 132 q 414 283 405 232 q 423 391 423 338 q 399 549 423 460 q 389 581 395 566 l 303 115 m 218 157 l 319 671 l 309 677 l 300 680 l 299 681 q 281 677 288 680 q 212 574 241 653 q 177 369 177 481 q 198 207 177 272 q 218 157 208 178 m 278 -24 l 276 -34 q 239 -91 264 -91 q 219 -79 227 -91 l 212 -71 q 193 -11 196 -49 q 100 53 146 7 q 24 189 56 96 q 0 355 0 254 q 170 778 0 655 q 280 814 224 814 q 345 802 313 814 q 378 841 355 841 q 404 821 393 841 q 419 760 419 791 l 419 755 q 526 569 494 687 q 550 386 550 477 q 538 258 550 321 q 278 -24 479 0 z "},"":{"ha":680,"x_min":0,"x_max":610,"o":"m 303 -18 q 176 9 237 -18 q 37 174 80 54 q 1 389 1 297 l 0 449 q 18 753 0 591 q 33 794 18 772 q 102 827 55 825 l 136 827 q 196 803 172 827 q 217 748 217 781 l 217 741 q 208 499 208 616 q 209 396 208 447 q 241 204 215 278 q 286 130 263 144 q 340 120 301 121 q 381 136 365 127 q 450 254 428 163 q 473 491 473 370 q 471 560 473 526 q 469 699 471 650 q 488 748 469 728 q 537 768 507 767 q 585 749 566 767 q 606 703 604 730 q 606 652 606 677 q 610 491 610 517 q 583 222 610 358 q 516 75 562 134 q 357 -14 461 9 q 303 -18 324 -18 m 335 864 l 332 864 q 313 871 321 864 l 176 984 q 161 1018 161 998 q 170 1044 161 1031 q 205 1062 183 1062 q 237 1047 224 1062 q 355 913 296 980 q 361 895 361 905 q 354 876 361 885 q 335 864 347 866 z "},"":{"ha":680,"x_min":0,"x_max":610,"o":"m 303 -18 q 176 9 237 -18 q 37 174 80 54 q 1 389 1 297 l 0 449 q 18 753 0 591 q 33 794 18 772 q 102 827 55 825 l 136 827 q 196 803 172 827 q 217 748 217 781 l 217 741 q 208 499 208 616 q 209 396 208 447 q 241 204 215 278 q 286 130 263 144 q 340 120 301 121 q 381 136 365 127 q 450 254 428 163 q 473 491 473 370 q 471 560 473 526 q 469 699 471 650 q 488 748 469 728 q 537 768 507 767 q 585 749 566 767 q 606 703 604 730 q 606 652 606 677 q 610 491 610 517 q 583 222 610 358 q 516 75 562 134 q 357 -14 461 9 q 303 -18 324 -18 m 321 864 q 296 878 305 864 q 290 895 290 886 q 298 913 290 905 l 415 1047 q 448 1062 428 1062 q 482 1044 469 1062 q 491 1017 491 1031 q 490 1006 491 1015 q 476 984 489 996 l 338 871 q 321 864 330 864 z "},"":{"ha":680,"x_min":0,"x_max":610,"o":"m 303 -18 q 176 9 237 -18 q 37 174 80 54 q 1 389 1 297 l 0 449 q 18 753 0 591 q 33 794 18 772 q 102 827 55 825 l 136 827 q 196 803 172 827 q 217 748 217 781 l 217 741 q 208 499 208 616 q 209 396 208 447 q 241 204 215 278 q 286 130 263 144 q 340 120 301 121 q 381 136 365 127 q 450 254 428 163 q 473 491 473 370 q 471 560 473 526 q 469 699 471 650 q 488 748 469 728 q 537 768 507 767 q 585 749 566 767 q 606 703 604 730 q 606 652 606 677 q 610 491 610 517 q 583 222 610 358 q 516 75 562 134 q 357 -14 461 9 q 303 -18 324 -18 m 288 865 q 248 894 264 865 l 245 899 q 241 918 241 908 q 248 942 241 930 l 330 1055 q 349 1065 337 1065 q 369 1052 362 1065 l 437 921 q 441 905 441 913 q 435 886 441 896 q 409 873 425 873 q 403 873 406 873 q 373 895 379 878 l 347 946 l 312 877 q 288 865 301 865 z "},"":{"ha":680,"x_min":0,"x_max":610,"o":"m 303 -18 q 176 9 237 -18 q 37 174 80 54 q 1 389 1 297 l 0 449 q 18 753 0 591 q 33 794 18 772 q 102 827 55 825 l 136 827 q 196 803 172 827 q 217 748 217 781 l 217 741 q 208 499 208 616 q 209 396 208 447 q 241 204 215 278 q 286 130 263 144 q 340 120 301 121 q 381 136 365 127 q 450 254 428 163 q 473 491 473 370 q 471 560 473 526 q 469 699 471 650 q 488 748 469 728 q 537 768 507 767 q 585 749 566 767 q 606 703 604 730 q 606 652 606 677 q 610 491 610 517 q 583 222 610 358 q 516 75 562 134 q 357 -14 461 9 q 303 -18 324 -18 m 273 876 q 230 893 245 876 q 214 938 214 910 q 232 984 214 967 q 273 1000 249 1000 q 318 984 302 1000 q 334 943 334 969 q 313 892 334 912 q 273 876 296 876 m 418 876 q 375 893 391 876 q 359 938 359 910 q 376 984 359 967 q 418 1000 393 1000 q 463 984 447 1000 q 479 943 479 969 q 458 892 479 912 q 418 876 441 876 z "},"":{"ha":632,"x_min":0,"x_max":604,"o":"m 298 -21 q 218 1 257 -21 q 138 91 166 30 q 132 117 132 104 q 142 149 132 130 q 180 174 151 167 q 198 176 189 176 q 252 142 233 176 q 303 104 271 104 q 360 134 334 104 q 437 503 437 232 l 437 532 q 365 388 408 459 q 201 296 306 302 q 64 361 119 296 q 0 593 0 446 q 9 718 0 663 q 17 763 16 760 q 41 802 24 787 l 41 800 q 72 823 50 812 q 107 829 87 829 q 178 798 154 829 q 192 753 192 777 q 191 740 192 747 q 176 591 176 661 q 188 481 176 535 q 205 446 195 452 q 228 439 212 439 q 245 442 237 439 q 264 463 252 446 q 342 635 302 526 q 395 758 371 711 q 456 823 420 805 q 484 829 477 829 l 519 828 q 572 807 550 827 q 598 755 594 787 q 604 637 604 701 q 589 347 604 500 q 490 77 575 179 q 384 -3 446 26 q 298 -21 344 -21 m 298 864 q 273 878 282 864 q 267 895 267 886 q 275 913 267 905 l 392 1047 q 425 1062 405 1062 q 459 1044 446 1062 q 468 1017 468 1031 q 467 1006 468 1015 q 453 984 466 996 l 315 871 q 298 864 307 864 z "},"":{"ha":713,"x_min":0,"x_max":474,"o":"m 50 6 q 16 20 31 6 q 0 55 1 34 q 1 186 0 90 q 8 568 3 454 q 107 659 15 631 q 243 680 180 680 q 365 656 310 680 q 462 512 462 605 q 457 467 462 491 q 362 356 435 394 q 344 347 353 352 q 368 334 359 338 q 469 224 448 298 q 474 184 474 204 q 442 88 474 134 q 294 16 389 16 q 272 18 283 16 q 208 41 231 25 q 178 79 178 62 q 195 106 178 98 l 222 117 q 234 119 229 119 q 252 113 243 119 q 271 102 260 106 l 277 102 q 334 137 309 102 q 344 157 343 151 q 345 165 345 163 q 342 177 345 172 q 260 251 328 219 q 193 338 193 283 q 195 358 193 347 q 223 408 203 388 q 264 443 243 427 q 296 469 283 457 q 321 528 321 497 q 309 562 321 546 q 274 583 294 580 q 242 587 254 587 q 199 581 222 587 q 144 559 154 566 q 140 185 140 446 l 140 56 q 77 8 140 16 l 50 6 z "},"":{"ha":562,"x_min":0,"x_max":494,"o":"m 423 3 l 417 4 l 393 7 q 350 30 367 10 q 332 79 334 50 l 332 146 q 278 79 307 109 q 218 32 250 49 q 154 15 186 15 l 143 15 q 32 99 71 23 q 0 251 0 166 q 5 332 0 269 q 62 484 9 395 q 182 591 111 562 q 266 608 222 608 q 354 593 310 608 q 404 619 374 616 q 427 618 415 618 l 428 618 q 475 599 456 618 q 494 547 494 581 l 494 541 q 491 410 492 500 q 489 168 489 279 q 490 79 489 115 l 490 78 q 466 20 490 43 q 423 3 447 3 m 173 132 q 205 149 180 132 l 206 148 q 282 266 246 190 q 332 432 319 342 q 334 493 333 465 l 315 499 q 304 500 309 500 q 260 486 280 500 q 202 410 226 460 q 168 305 179 361 q 156 208 156 251 q 161 159 156 176 q 173 132 165 138 m 321 670 l 318 670 q 300 677 308 670 l 163 790 q 148 824 148 804 q 156 850 148 838 q 191 868 170 868 q 224 853 210 868 q 341 720 282 786 q 348 701 348 711 q 341 682 348 691 q 321 670 334 672 z "},"":{"ha":562,"x_min":0,"x_max":494,"o":"m 423 3 l 417 4 l 393 7 q 350 30 367 10 q 332 79 334 50 l 332 146 q 278 79 307 109 q 218 32 250 49 q 154 15 186 15 l 143 15 q 32 99 71 23 q 0 251 0 166 q 5 332 0 269 q 62 484 9 395 q 182 591 111 562 q 266 608 222 608 q 354 593 310 608 q 404 619 374 616 q 427 618 415 618 l 428 618 q 475 599 456 618 q 494 547 494 581 l 494 541 q 491 410 492 500 q 489 168 489 279 q 490 79 489 115 l 490 78 q 466 20 490 43 q 423 3 447 3 m 173 132 q 205 149 180 132 l 206 148 q 282 266 246 190 q 332 432 319 342 q 334 493 333 465 l 315 499 q 304 500 309 500 q 260 486 280 500 q 202 410 226 460 q 168 305 179 361 q 156 208 156 251 q 161 159 156 176 q 173 132 165 138 m 300 668 q 275 682 285 668 q 270 699 270 690 q 277 718 270 709 l 395 851 q 427 866 408 866 q 462 848 448 866 q 471 821 471 836 q 470 810 471 819 q 456 788 469 800 l 318 675 q 300 668 310 668 z "},"":{"ha":562,"x_min":0,"x_max":494,"o":"m 423 3 l 417 4 l 393 7 q 350 30 367 10 q 332 79 334 50 l 332 146 q 278 79 307 109 q 218 32 250 49 q 154 15 186 15 l 143 15 q 32 99 71 23 q 0 251 0 166 q 5 332 0 269 q 62 484 9 395 q 182 591 111 562 q 266 608 222 608 q 354 593 310 608 q 404 619 374 616 q 427 618 415 618 l 428 618 q 475 599 456 618 q 494 547 494 581 l 494 541 q 491 410 492 500 q 489 168 489 279 q 490 79 489 115 l 490 78 q 466 20 490 43 q 423 3 447 3 m 173 132 q 205 149 180 132 l 206 148 q 282 266 246 190 q 332 432 319 342 q 334 493 333 465 l 315 499 q 304 500 309 500 q 260 486 280 500 q 202 410 226 460 q 168 305 179 361 q 156 208 156 251 q 161 159 156 176 q 173 132 165 138 m 246 670 q 206 699 223 670 l 203 703 q 199 722 199 713 q 207 747 199 734 l 289 860 q 307 869 296 869 q 328 857 321 869 l 396 726 q 400 710 400 718 q 393 690 400 701 q 368 677 383 677 q 361 678 364 677 q 332 699 338 683 l 306 751 l 271 682 q 246 670 260 670 z "},"":{"ha":562,"x_min":0,"x_max":494,"o":"m 423 3 l 417 4 l 393 7 q 350 30 367 10 q 332 79 334 50 l 332 146 q 278 79 307 109 q 218 32 250 49 q 154 15 186 15 l 143 15 q 32 99 71 23 q 0 251 0 166 q 5 332 0 269 q 62 484 9 395 q 182 591 111 562 q 266 608 222 608 q 354 593 310 608 q 404 619 374 616 q 427 618 415 618 l 428 618 q 475 599 456 618 q 494 547 494 581 l 494 541 q 491 410 492 500 q 489 168 489 279 q 490 79 489 115 l 490 78 q 466 20 490 43 q 423 3 447 3 m 173 132 q 205 149 180 132 l 206 148 q 282 266 246 190 q 332 432 319 342 q 334 493 333 465 l 315 499 q 304 500 309 500 q 260 486 280 500 q 202 410 226 460 q 168 305 179 361 q 156 208 156 251 q 161 159 156 176 q 173 132 165 138 m 359 674 q 277 705 320 674 q 262 709 270 709 q 226 695 245 709 q 205 689 216 689 q 194 690 201 689 q 176 701 186 690 q 166 729 166 712 q 184 763 166 751 q 261 788 225 788 q 322 770 293 788 q 360 754 345 754 q 373 759 368 754 q 398 768 385 768 q 415 764 406 768 q 440 728 440 753 q 429 703 440 713 q 359 674 400 674 z "},"":{"ha":562,"x_min":0,"x_max":494,"o":"m 423 3 l 417 4 l 393 7 q 350 30 367 10 q 332 79 334 50 l 332 146 q 278 79 307 109 q 218 32 250 49 q 154 15 186 15 l 143 15 q 32 99 71 23 q 0 251 0 166 q 5 332 0 269 q 62 484 9 395 q 182 591 111 562 q 266 608 222 608 q 354 593 310 608 q 404 619 374 616 q 427 618 415 618 l 428 618 q 475 599 456 618 q 494 547 494 581 l 494 541 q 491 410 492 500 q 489 168 489 279 q 490 79 489 115 l 490 78 q 466 20 490 43 q 423 3 447 3 m 173 132 q 205 149 180 132 l 206 148 q 282 266 246 190 q 332 432 319 342 q 334 493 333 465 l 315 499 q 304 500 309 500 q 260 486 280 500 q 202 410 226 460 q 168 305 179 361 q 156 208 156 251 q 161 159 156 176 q 173 132 165 138 m 220 668 q 177 686 193 669 q 161 730 161 703 q 179 776 162 760 q 221 793 197 793 q 266 777 250 792 q 282 735 282 762 q 261 684 281 705 q 220 668 244 668 m 366 668 q 322 686 338 669 q 307 730 307 703 q 324 776 307 760 q 366 793 341 793 q 411 777 395 792 q 427 735 427 762 q 406 684 427 705 q 366 668 389 668 z "},"":{"ha":562,"x_min":0,"x_max":494,"o":"m 423 3 l 417 4 l 393 7 q 350 30 367 10 q 332 79 334 50 l 332 146 q 278 79 307 109 q 218 32 250 49 q 154 15 186 15 l 143 15 q 32 99 71 23 q 0 251 0 166 q 5 332 0 269 q 62 484 9 395 q 182 591 111 562 q 266 608 222 608 q 354 593 310 608 q 404 619 374 616 q 427 618 415 618 l 428 618 q 475 599 456 618 q 494 547 494 581 l 494 541 q 491 410 492 500 q 489 168 489 279 q 490 79 489 115 l 490 78 q 466 20 490 43 q 423 3 447 3 m 173 132 q 205 149 180 132 l 206 148 q 282 266 246 190 q 332 432 319 342 q 334 493 333 465 l 315 499 q 304 500 309 500 q 260 486 280 500 q 202 410 226 460 q 168 305 179 361 q 156 208 156 251 q 161 159 156 176 q 173 132 165 138 m 309 664 q 252 682 274 665 q 223 749 223 704 q 234 803 223 778 q 311 859 258 859 q 373 830 350 859 q 393 762 393 804 q 359 681 391 708 q 309 664 338 664 m 303 721 q 317 737 310 721 q 323 764 322 747 q 315 798 323 787 q 289 743 290 779 q 293 724 289 728 l 294 723 q 296 722 295 722 q 297 721 296 722 q 300 721 298 721 l 303 721 z "},"":{"ha":562,"x_min":0,"x_max":783,"o":"m 423 3 l 417 4 l 393 7 q 350 30 367 10 q 332 79 334 50 l 332 146 q 278 79 307 109 q 218 32 250 49 q 154 15 186 15 l 143 15 q 32 99 71 23 q 0 251 0 166 q 5 332 0 269 q 62 484 9 395 q 182 591 111 562 q 266 608 222 608 q 354 593 310 608 q 404 619 374 616 q 427 618 415 618 l 428 618 q 475 599 456 618 q 494 547 494 581 l 494 541 q 491 410 492 500 q 489 168 489 279 q 490 79 489 115 l 490 78 q 466 20 490 43 q 423 3 447 3 m 173 132 q 205 149 180 132 l 206 148 q 282 266 246 190 q 332 432 319 342 q 334 493 333 465 l 315 499 q 304 500 309 500 q 260 486 280 500 q 202 410 226 460 q 168 305 179 361 q 156 208 156 251 q 161 159 156 176 q 173 132 165 138 m 580 -6 q 467 27 526 -6 q 382 122 409 60 q 353 265 353 186 q 374 403 353 336 q 473 566 407 509 q 608 618 533 618 l 623 618 q 732 577 690 611 q 782 471 782 537 q 671 295 782 369 q 606 261 644 277 q 531 241 568 245 l 531 224 q 553 123 531 162 q 592 100 566 100 q 614 103 602 100 q 692 173 652 121 q 732 192 708 192 q 762 182 748 192 q 783 141 783 166 q 772 110 783 125 q 721 55 749 81 q 657 12 692 29 q 580 -6 623 -6 m 548 348 q 652 409 608 366 q 681 469 681 439 q 671 496 681 488 q 659 499 665 499 q 641 496 652 499 q 607 469 629 494 q 548 348 568 422 z "},"":{"ha":614,"x_min":0,"x_max":422,"o":"m 248 -3 q 252 -21 252 -10 l 252 -34 q 296 -52 279 -34 q 322 -117 322 -77 q 311 -168 322 -142 q 235 -231 286 -218 q 201 -237 213 -237 q 178 -226 188 -237 q 168 -201 168 -216 q 171 -192 168 -196 q 202 -173 187 -174 q 233 -159 216 -173 q 258 -121 256 -140 q 246 -111 254 -111 q 214 -125 235 -111 q 174 -141 187 -141 q 157 -115 157 -141 q 171 -32 157 -111 q 176 -10 172 -24 q 182 3 179 -3 q 94 47 138 14 q 18 162 40 90 q 0 286 0 221 q 3 348 0 300 q 35 467 6 396 q 137 603 72 557 q 262 643 193 643 q 282 642 272 643 l 288 642 q 297 640 292 642 l 300 640 q 385 587 361 627 q 400 536 400 560 q 381 497 400 512 q 349 486 367 486 q 323 492 338 486 q 294 528 299 502 l 293 530 q 277 536 285 535 q 275 537 276 536 l 269 537 q 232 513 252 537 q 177 388 195 467 q 163 269 163 328 q 167 205 163 252 q 201 120 170 158 q 231 106 211 106 q 248 107 236 106 q 292 127 260 109 q 319 165 309 144 q 367 193 334 193 l 371 193 q 414 168 401 189 q 422 143 422 156 q 417 121 422 132 q 306 12 381 45 q 248 -3 277 0 z "},"":{"ha":497,"x_min":0,"x_max":429,"o":"m 227 -6 q 114 27 172 -6 q 28 122 56 60 q 0 265 0 186 q 21 403 0 336 q 119 566 54 509 q 255 618 180 618 l 270 618 q 379 577 337 611 q 429 471 429 537 q 318 295 429 369 q 253 261 290 277 q 178 241 215 245 l 178 224 q 199 123 178 162 q 239 100 213 100 q 260 103 248 100 q 339 173 298 121 q 378 192 355 192 q 409 182 395 192 q 429 141 429 166 q 418 110 429 125 q 368 55 396 81 q 304 12 339 29 q 227 -6 269 -6 m 195 348 q 298 409 255 366 q 328 469 328 439 q 317 496 328 488 q 305 499 312 499 q 287 496 299 499 q 254 469 275 494 q 195 348 215 422 m 263 670 l 260 670 q 241 677 250 670 l 104 790 q 90 824 90 804 q 98 850 90 838 q 133 868 111 868 q 165 853 152 868 q 283 720 224 786 q 290 701 290 711 q 282 682 290 691 q 263 670 275 672 z "},"":{"ha":497,"x_min":0,"x_max":429,"o":"m 227 -6 q 114 27 172 -6 q 28 122 56 60 q 0 265 0 186 q 21 403 0 336 q 119 566 54 509 q 255 618 180 618 l 270 618 q 379 577 337 611 q 429 471 429 537 q 318 295 429 369 q 253 261 290 277 q 178 241 215 245 l 178 224 q 199 123 178 162 q 239 100 213 100 q 260 103 248 100 q 339 173 298 121 q 378 192 355 192 q 409 182 395 192 q 429 141 429 166 q 418 110 429 125 q 368 55 396 81 q 304 12 339 29 q 227 -6 269 -6 m 195 348 q 298 409 255 366 q 328 469 328 439 q 317 496 328 488 q 305 499 312 499 q 287 496 299 499 q 254 469 275 494 q 195 348 215 422 m 240 668 q 215 682 224 668 q 210 699 210 690 q 217 718 210 709 l 334 851 q 367 866 347 866 q 401 848 388 866 q 410 821 410 836 q 409 810 410 819 q 395 788 408 800 l 258 675 q 240 668 250 668 z "},"":{"ha":497,"x_min":0,"x_max":429,"o":"m 227 -6 q 114 27 172 -6 q 28 122 56 60 q 0 265 0 186 q 21 403 0 336 q 119 566 54 509 q 255 618 180 618 l 270 618 q 379 577 337 611 q 429 471 429 537 q 318 295 429 369 q 253 261 290 277 q 178 241 215 245 l 178 224 q 199 123 178 162 q 239 100 213 100 q 260 103 248 100 q 339 173 298 121 q 378 192 355 192 q 409 182 395 192 q 429 141 429 166 q 418 110 429 125 q 368 55 396 81 q 304 12 339 29 q 227 -6 269 -6 m 195 348 q 298 409 255 366 q 328 469 328 439 q 317 496 328 488 q 305 499 312 499 q 287 496 299 499 q 254 469 275 494 q 195 348 215 422 m 188 670 q 148 699 165 670 l 145 703 q 141 722 141 713 q 149 747 141 734 l 231 860 q 249 869 237 869 q 269 857 262 869 l 338 726 q 342 710 342 718 q 335 690 342 701 q 309 677 325 677 q 303 678 306 677 q 273 699 279 683 l 248 751 l 212 682 q 188 670 201 670 z "},"":{"ha":497,"x_min":0,"x_max":429,"o":"m 227 -6 q 114 27 172 -6 q 28 122 56 60 q 0 265 0 186 q 21 403 0 336 q 119 566 54 509 q 255 618 180 618 l 270 618 q 379 577 337 611 q 429 471 429 537 q 318 295 429 369 q 253 261 290 277 q 178 241 215 245 l 178 224 q 199 123 178 162 q 239 100 213 100 q 260 103 248 100 q 339 173 298 121 q 378 192 355 192 q 409 182 395 192 q 429 141 429 166 q 418 110 429 125 q 368 55 396 81 q 304 12 339 29 q 227 -6 269 -6 m 195 348 q 298 409 255 366 q 328 469 328 439 q 317 496 328 488 q 305 499 312 499 q 287 496 299 499 q 254 469 275 494 q 195 348 215 422 m 174 668 q 131 686 147 669 q 115 730 115 703 q 133 776 116 760 q 175 793 151 793 q 220 777 203 792 q 236 735 236 762 q 215 684 235 705 q 174 668 198 668 m 319 668 q 276 686 292 669 q 260 730 260 703 q 278 776 261 760 q 319 793 295 793 q 365 777 349 792 q 381 735 381 762 q 360 684 380 705 q 319 668 343 668 z "},"":{"ha":257,"x_min":-87,"x_max":157,"o":"m 78 -3 l 70 -3 q 20 16 41 -3 q 3 59 3 35 l 3 60 q 4 202 4 116 q 0 532 4 408 l 0 534 q 20 589 0 570 q 82 612 41 611 q 133 593 113 612 q 156 545 154 574 q 157 461 157 514 q 150 65 157 216 q 133 22 149 42 q 78 -3 116 1 m 86 670 l 83 670 q 64 677 73 670 l -73 790 q -87 824 -87 804 q -79 850 -87 838 q -44 868 -66 868 q -12 853 -25 868 q 106 720 47 786 q 113 701 113 711 q 105 682 113 691 q 86 670 98 672 z "},"":{"ha":349,"x_min":0,"x_max":232,"o":"m 78 -3 l 70 -3 q 20 16 41 -3 q 3 59 3 35 l 3 60 q 4 202 4 116 q 0 532 4 408 l 0 534 q 20 589 0 570 q 82 612 41 611 q 133 593 113 612 q 156 545 154 574 q 157 461 157 514 q 150 65 157 216 q 133 22 149 42 q 78 -3 116 1 m 62 668 q 37 682 46 668 q 31 699 31 690 q 39 718 31 709 l 156 851 q 189 866 169 866 q 223 848 210 866 q 232 821 232 836 q 231 810 232 819 q 217 788 230 800 l 79 675 q 62 668 71 668 z "},"":{"ha":349,"x_min":-24,"x_max":177,"o":"m 78 -3 l 70 -3 q 20 16 41 -3 q 3 59 3 35 l 3 60 q 4 202 4 116 q 0 532 4 408 l 0 534 q 20 589 0 570 q 82 612 41 611 q 133 593 113 612 q 156 545 154 574 q 157 461 157 514 q 150 65 157 216 q 133 22 149 42 q 78 -3 116 1 m 23 670 q -17 699 0 670 l -20 703 q -24 722 -24 713 q -16 747 -24 734 l 66 860 q 84 869 73 869 q 104 857 98 869 l 173 726 q 177 710 177 718 q 170 690 177 701 q 144 677 160 677 q 138 678 141 677 q 109 699 115 683 l 83 751 l 47 682 q 23 670 37 670 z "},"":{"ha":349,"x_min":-52,"x_max":214,"o":"m 78 -3 l 70 -3 q 20 16 41 -3 q 3 59 3 35 l 3 60 q 4 202 4 116 q 0 532 4 408 l 0 534 q 20 589 0 570 q 82 612 41 611 q 133 593 113 612 q 156 545 154 574 q 157 461 157 514 q 150 65 157 216 q 133 22 149 42 q 78 -3 116 1 m 7 668 q -36 686 -20 669 q -52 730 -52 703 q -34 776 -51 760 q 8 793 -16 793 q 53 777 37 792 q 69 735 69 762 q 48 684 68 705 q 7 668 31 668 m 153 668 q 110 686 125 669 q 94 730 94 703 q 111 776 94 760 q 153 793 128 793 q 198 777 182 792 q 214 735 214 762 q 193 684 214 705 q 153 668 176 668 z "},"":{"ha":545,"x_min":0,"x_max":488,"o":"m 163 -7 q 43 68 91 -7 q 0 243 0 142 q 43 434 0 347 q 154 547 85 513 q 259 571 202 571 q 317 566 275 571 q 328 735 321 684 q 365 803 333 783 q 395 811 376 811 q 407 810 400 811 q 457 795 437 810 q 488 725 488 774 q 470 88 484 644 q 456 26 470 52 q 415 -2 444 7 l 397 -3 q 346 22 366 -3 q 321 104 327 45 q 163 -7 251 -5 m 175 104 q 200 115 181 104 q 264 223 235 155 q 306 370 294 291 q 307 460 306 416 q 285 465 292 465 q 247 448 266 465 q 203 385 227 432 q 172 281 182 340 q 161 179 161 227 q 162 148 161 175 q 175 104 162 121 z "},"":{"ha":513,"x_min":0,"x_max":462,"o":"m 89 -12 l 77 -12 q 22 10 46 -12 q 1 58 1 31 l 2 127 q 1 361 2 236 l 0 539 q 24 603 0 577 q 81 623 45 623 q 134 602 112 623 q 159 542 159 578 l 159 536 q 157 460 157 511 q 326 616 229 614 q 393 587 364 616 q 441 479 422 563 q 462 229 462 391 q 458 62 462 156 q 441 13 454 28 q 412 -6 427 -3 q 391 -10 397 -10 l 391 -9 l 359 -9 q 315 8 332 -9 q 301 35 303 22 q 300 48 300 42 l 301 56 q 305 210 305 143 q 298 361 305 286 q 275 465 290 437 l 271 461 q 209 316 235 400 q 167 160 182 231 q 153 68 153 91 l 153 67 q 152 62 153 63 q 132 8 150 26 q 89 -12 114 -10 m 324 674 q 241 705 285 674 q 227 709 235 709 q 191 695 210 709 q 170 689 180 689 q 159 690 166 689 q 141 701 151 690 q 131 729 131 712 q 149 763 131 751 q 226 788 190 788 q 287 770 258 788 q 325 754 309 754 q 338 759 332 754 q 363 768 350 768 q 380 764 371 768 q 405 728 405 753 q 394 703 405 713 q 324 674 365 674 z "},"":{"ha":461,"x_min":0,"x_max":416,"o":"m 205 -5 l 199 -5 q 76 52 135 -5 q 18 153 43 83 q 0 279 0 203 q 127 595 0 503 q 212 622 169 622 q 277 606 243 622 q 370 508 336 574 q 416 303 416 417 q 406 203 416 252 q 333 54 386 109 q 205 -5 281 -1 m 312 254 q 315 302 315 278 q 301 408 315 351 q 252 500 288 465 l 252 478 q 261 371 252 433 q 312 254 271 309 m 222 100 q 286 161 264 113 q 169 427 180 251 q 146 301 146 366 q 163 177 146 227 q 201 110 179 128 q 222 100 212 100 m 234 670 l 231 670 q 212 677 220 670 l 75 790 q 60 824 60 804 q 68 850 60 838 q 104 868 82 868 q 136 853 123 868 q 254 720 195 786 q 260 701 260 711 q 253 682 260 691 q 234 670 246 672 z "},"":{"ha":461,"x_min":0,"x_max":416,"o":"m 205 -5 l 199 -5 q 76 52 135 -5 q 18 153 43 83 q 0 279 0 203 q 127 595 0 503 q 212 622 169 622 q 277 606 243 622 q 370 508 336 574 q 416 303 416 417 q 406 203 416 252 q 333 54 386 109 q 205 -5 281 -1 m 312 254 q 315 302 315 278 q 301 408 315 351 q 252 500 288 465 l 252 478 q 261 371 252 433 q 312 254 271 309 m 222 100 q 286 161 264 113 q 169 427 180 251 q 146 301 146 366 q 163 177 146 227 q 201 110 179 128 q 222 100 212 100 m 193 668 q 168 682 178 668 q 163 699 163 690 q 170 718 163 709 l 288 851 q 320 866 300 866 q 355 848 341 866 q 363 821 363 836 q 362 810 363 819 q 349 788 361 800 l 211 675 q 193 668 203 668 z "},"":{"ha":461,"x_min":0,"x_max":416,"o":"m 205 -5 l 199 -5 q 76 52 135 -5 q 18 153 43 83 q 0 279 0 203 q 127 595 0 503 q 212 622 169 622 q 277 606 243 622 q 370 508 336 574 q 416 303 416 417 q 406 203 416 252 q 333 54 386 109 q 205 -5 281 -1 m 312 254 q 315 302 315 278 q 301 408 315 351 q 252 500 288 465 l 252 478 q 261 371 252 433 q 312 254 271 309 m 222 100 q 286 161 264 113 q 169 427 180 251 q 146 301 146 366 q 163 177 146 227 q 201 110 179 128 q 222 100 212 100 m 155 670 q 115 699 132 670 l 112 703 q 108 722 108 713 q 115 747 108 734 l 197 860 q 216 869 204 869 q 236 857 229 869 l 304 726 q 309 710 309 718 q 302 690 309 701 q 276 677 292 677 q 270 678 273 677 q 240 699 246 683 l 214 751 l 179 682 q 155 670 168 670 z "},"":{"ha":461,"x_min":0,"x_max":416,"o":"m 205 -5 l 199 -5 q 76 52 135 -5 q 18 153 43 83 q 0 279 0 203 q 127 595 0 503 q 212 622 169 622 q 277 606 243 622 q 370 508 336 574 q 416 303 416 417 q 406 203 416 252 q 333 54 386 109 q 205 -5 281 -1 m 312 254 q 315 302 315 278 q 301 408 315 351 q 252 500 288 465 l 252 478 q 261 371 252 433 q 312 254 271 309 m 222 100 q 286 161 264 113 q 169 427 180 251 q 146 301 146 366 q 163 177 146 227 q 201 110 179 128 q 222 100 212 100 m 272 674 q 189 705 233 674 q 174 709 182 709 q 138 695 158 709 q 117 689 128 689 q 106 690 114 689 q 89 701 99 690 q 79 729 79 712 q 97 763 79 751 q 174 788 138 788 q 235 770 205 788 q 273 754 257 754 q 286 759 280 754 q 311 768 298 768 q 328 764 319 768 q 353 728 353 753 q 342 703 353 713 q 272 674 313 674 z "},"":{"ha":461,"x_min":0,"x_max":416,"o":"m 205 -5 l 199 -5 q 76 52 135 -5 q 18 153 43 83 q 0 279 0 203 q 127 595 0 503 q 212 622 169 622 q 277 606 243 622 q 370 508 336 574 q 416 303 416 417 q 406 203 416 252 q 333 54 386 109 q 205 -5 281 -1 m 312 254 q 315 302 315 278 q 301 408 315 351 q 252 500 288 465 l 252 478 q 261 371 252 433 q 312 254 271 309 m 222 100 q 286 161 264 113 q 169 427 180 251 q 146 301 146 366 q 163 177 146 227 q 201 110 179 128 q 222 100 212 100 m 132 668 q 89 686 105 669 q 73 730 73 703 q 91 776 74 760 q 133 793 109 793 q 178 777 161 792 q 194 735 194 762 q 173 684 193 705 q 132 668 156 668 m 277 668 q 234 686 250 669 q 218 730 218 703 q 236 776 219 760 q 277 793 253 793 q 323 777 307 792 q 339 735 339 762 q 318 684 338 705 q 277 668 301 668 z "},"":{"ha":498,"x_min":-5834,"x_max":-5444,"o":"m -5792 372 q -5832 418 -5818 372 q -5834 437 -5834 429 q -5827 463 -5834 452 q -5798 481 -5816 481 l -5480 465 q -5457 453 -5465 465 q -5445 419 -5448 441 l -5444 412 q -5453 390 -5444 399 q -5475 380 -5461 380 l -5792 372 m -5655 145 q -5707 165 -5684 145 q -5731 221 -5731 188 q -5676 290 -5731 265 q -5644 296 -5660 296 q -5599 281 -5621 296 q -5571 229 -5571 260 l -5571 226 q -5619 152 -5577 167 q -5655 145 -5639 145 m -5648 593 q -5707 612 -5684 593 q -5731 669 -5731 635 q -5676 737 -5731 713 q -5644 744 -5659 744 q -5599 729 -5620 744 q -5571 677 -5571 707 l -5571 673 q -5588 623 -5575 640 q -5620 600 -5602 606 q -5648 593 -5637 594 z "},"":{"ha":461,"x_min":0,"x_max":416,"o":"m 185 324 q 169 427 172 372 q 146 301 146 366 q 159 190 146 236 l 185 324 m 252 195 l 235 105 q 286 161 267 121 q 252 195 267 177 m 243 618 l 266 734 q 300 780 275 780 q 326 760 315 780 q 341 699 341 730 q 339 673 341 684 l 321 574 q 370 508 350 547 q 416 303 416 417 q 406 203 416 252 q 334 54 386 109 q 214 -5 284 3 l 198 -95 q 161 -152 186 -152 q 141 -140 149 -152 l 134 -132 q 115 -57 115 -105 q 119 -11 115 -35 l 124 15 q 76 52 100 28 q 18 153 43 83 q 0 279 0 203 q 127 595 0 503 q 212 622 169 622 q 243 618 227 622 m 294 431 l 275 321 q 312 254 288 286 q 315 302 315 278 q 301 408 315 351 q 294 431 298 420 z "},"":{"ha":542,"x_min":0,"x_max":474,"o":"m 412 -11 l 390 -9 q 340 11 357 -7 q 324 50 324 28 q 321 193 323 110 l 320 263 q 296 195 308 227 q 241 89 273 123 q 186 50 217 58 q 141 42 163 42 q 97 51 117 42 q 64 74 77 60 q 9 210 21 125 q 0 324 0 266 q 21 543 0 428 q 50 585 26 571 q 94 598 68 598 l 104 598 q 169 569 153 596 q 181 532 181 555 q 179 513 181 524 q 155 270 155 389 q 173 141 155 180 q 216 221 191 157 l 218 229 l 218 229 q 290 458 255 327 q 310 527 303 503 q 323 562 317 551 q 378 604 331 601 l 408 603 q 454 586 435 603 q 470 550 470 571 q 471 501 471 530 l 471 437 q 474 50 471 138 l 474 47 q 458 6 474 23 q 412 -11 442 -11 m 259 670 l 256 670 q 237 677 245 670 l 100 790 q 85 824 85 804 q 94 850 85 838 q 129 868 107 868 q 161 853 148 868 q 279 720 220 786 q 286 701 286 711 q 278 682 286 691 q 259 670 271 672 z "},"":{"ha":542,"x_min":0,"x_max":474,"o":"m 412 -11 l 390 -9 q 340 11 357 -7 q 324 50 324 28 q 321 193 323 110 l 320 263 q 296 195 308 227 q 241 89 273 123 q 186 50 217 58 q 141 42 163 42 q 97 51 117 42 q 64 74 77 60 q 9 210 21 125 q 0 324 0 266 q 21 543 0 428 q 50 585 26 571 q 94 598 68 598 l 104 598 q 169 569 153 596 q 181 532 181 555 q 179 513 181 524 q 155 270 155 389 q 173 141 155 180 q 216 221 191 157 l 218 229 l 218 229 q 290 458 255 327 q 310 527 303 503 q 323 562 317 551 q 378 604 331 601 l 408 603 q 454 586 435 603 q 470 550 470 571 q 471 501 471 530 l 471 437 q 474 50 471 138 l 474 47 q 458 6 474 23 q 412 -11 442 -11 m 243 668 q 218 682 228 668 q 213 699 213 690 q 220 718 213 709 l 338 851 q 370 866 351 866 q 405 848 391 866 q 414 821 414 836 q 413 810 414 819 q 399 788 412 800 l 261 675 q 243 668 253 668 z "},"":{"ha":542,"x_min":0,"x_max":474,"o":"m 412 -11 l 390 -9 q 340 11 357 -7 q 324 50 324 28 q 321 193 323 110 l 320 263 q 296 195 308 227 q 241 89 273 123 q 186 50 217 58 q 141 42 163 42 q 97 51 117 42 q 64 74 77 60 q 9 210 21 125 q 0 324 0 266 q 21 543 0 428 q 50 585 26 571 q 94 598 68 598 l 104 598 q 169 569 153 596 q 181 532 181 555 q 179 513 181 524 q 155 270 155 389 q 173 141 155 180 q 216 221 191 157 l 218 229 l 218 229 q 290 458 255 327 q 310 527 303 503 q 323 562 317 551 q 378 604 331 601 l 408 603 q 454 586 435 603 q 470 550 470 571 q 471 501 471 530 l 471 437 q 474 50 471 138 l 474 47 q 458 6 474 23 q 412 -11 442 -11 m 194 664 q 154 692 171 664 l 151 697 q 147 716 147 707 q 155 741 147 728 l 237 854 q 255 863 243 863 q 275 850 269 863 l 344 720 q 348 704 348 712 q 341 684 348 694 q 315 671 331 671 q 309 672 312 671 q 279 693 286 677 l 254 745 l 218 675 q 194 664 208 664 z "},"":{"ha":542,"x_min":0,"x_max":474,"o":"m 412 -11 l 390 -9 q 340 11 357 -7 q 324 50 324 28 q 321 193 323 110 l 320 263 q 296 195 308 227 q 241 89 273 123 q 186 50 217 58 q 141 42 163 42 q 97 51 117 42 q 64 74 77 60 q 9 210 21 125 q 0 324 0 266 q 21 543 0 428 q 50 585 26 571 q 94 598 68 598 l 104 598 q 169 569 153 596 q 181 532 181 555 q 179 513 181 524 q 155 270 155 389 q 173 141 155 180 q 216 221 191 157 l 218 229 l 218 229 q 290 458 255 327 q 310 527 303 503 q 323 562 317 551 q 378 604 331 601 l 408 603 q 454 586 435 603 q 470 550 470 571 q 471 501 471 530 l 471 437 q 474 50 471 138 l 474 47 q 458 6 474 23 q 412 -11 442 -11 m 191 668 q 148 686 163 669 q 132 730 132 703 q 150 776 132 760 q 191 793 167 793 q 236 777 220 792 q 252 735 252 762 q 231 684 252 705 q 191 668 214 668 m 329 668 q 286 686 302 669 q 270 730 270 703 q 288 776 271 760 q 329 793 304 793 q 374 777 358 792 q 391 735 391 762 q 370 684 390 705 q 329 668 353 668 z "},"":{"ha":584,"x_min":0,"x_max":508,"o":"m 269 -181 q 124 -116 186 -181 q 111 -82 111 -100 q 112 -65 111 -79 q 135 -38 114 -52 q 161 -31 148 -31 q 175 -32 165 -31 q 197 -46 184 -33 q 249 -78 220 -72 l 254 -78 q 277 -68 267 -78 q 321 53 307 -37 q 335 246 335 132 l 334 276 q 275 156 304 199 q 184 96 235 96 l 178 96 q 150 93 168 93 q 121 94 142 93 q 72 119 101 96 q 11 235 25 165 q 0 339 0 285 q 22 532 0 426 q 52 577 28 561 q 103 590 74 590 l 113 590 q 165 576 150 587 q 198 517 198 555 q 196 498 198 508 q 174 304 174 400 q 182 216 174 249 q 222 273 204 233 l 223 273 q 292 461 253 341 q 326 554 317 538 l 327 555 q 332 561 331 561 q 333 563 332 562 q 335 566 334 564 q 380 584 353 584 l 439 582 q 484 564 470 581 q 499 528 498 547 q 508 318 508 438 q 506 222 508 286 q 491 69 505 157 q 446 -75 477 -19 q 269 -181 382 -177 m 243 668 q 218 682 228 668 q 213 699 213 690 q 220 718 213 709 l 338 851 q 370 866 351 866 q 405 848 391 866 q 414 821 414 836 q 413 810 414 819 q 399 788 412 800 l 261 675 q 243 668 253 668 z "},"":{"ha":584,"x_min":0,"x_max":508,"o":"m 269 -181 q 124 -116 186 -181 q 111 -82 111 -100 q 112 -65 111 -79 q 135 -38 114 -52 q 161 -31 148 -31 q 175 -32 165 -31 q 197 -46 184 -33 q 249 -78 220 -72 l 254 -78 q 277 -68 267 -78 q 321 53 307 -37 q 335 246 335 132 l 334 276 q 275 156 304 199 q 184 96 235 96 l 178 96 q 150 93 168 93 q 121 94 142 93 q 72 119 101 96 q 11 235 25 165 q 0 339 0 285 q 22 532 0 426 q 52 577 28 561 q 103 590 74 590 l 113 590 q 165 576 150 587 q 198 517 198 555 q 196 498 198 508 q 174 304 174 400 q 182 216 174 249 q 222 273 204 233 l 223 273 q 292 461 253 341 q 326 554 317 538 l 327 555 q 332 561 331 561 q 333 563 332 562 q 335 566 334 564 q 380 584 353 584 l 439 582 q 484 564 470 581 q 499 528 498 547 q 508 318 508 438 q 506 222 508 286 q 491 69 505 157 q 446 -75 477 -19 q 269 -181 382 -177 m 210 668 q 166 686 182 669 q 151 730 151 703 q 169 776 151 760 q 210 793 186 793 q 255 777 239 792 q 271 735 271 762 q 250 684 271 705 q 210 668 233 668 m 348 668 q 305 686 321 669 q 289 730 289 703 q 307 776 290 760 q 348 793 323 793 q 393 777 377 792 q 410 735 410 762 q 389 684 409 705 q 348 668 372 668 z "},"":{"ha":744,"x_min":0,"x_max":629,"o":"m 43 239 q 25 245 31 239 q 16 266 20 252 l 11 283 q 0 334 0 309 q 5 362 0 351 q 33 376 12 376 l 574 355 q 605 343 596 355 q 620 311 614 332 l 625 297 q 629 275 629 285 q 594 241 629 243 l 43 239 z "},"":{"ha":1027,"x_min":0,"x_max":911,"o":"m 62 239 q 36 245 43 239 q 23 266 28 252 q 14 284 20 274 q 0 336 0 309 q 6 361 0 350 q 47 376 15 376 l 832 355 q 877 343 865 355 q 899 311 889 332 q 905 297 901 304 q 911 275 911 285 q 861 241 911 243 l 62 239 z "},"":{"ha":264,"x_min":0,"x_max":149,"o":"m 79 721 q 33 736 55 721 q 2 779 10 751 q 0 796 0 788 q 12 833 0 815 q 71 905 33 875 q 104 920 91 920 q 117 916 111 920 q 127 897 127 908 q 114 867 127 881 l 102 856 q 147 804 136 840 q 149 788 149 796 q 137 750 149 768 q 79 721 115 721 z "},"":{"ha":264,"x_min":0,"x_max":149,"o":"m 45 715 q 31 719 37 715 q 21 737 21 726 q 47 779 21 757 q 2 830 12 794 q 0 848 0 839 q 12 884 0 867 q 70 913 33 913 q 117 899 94 913 q 146 857 139 884 q 149 840 149 852 q 136 802 149 819 q 78 730 116 761 q 45 715 60 715 z "},"":{"ha":264,"x_min":0,"x_max":149,"o":"m 45 -72 q 32 -68 38 -72 q 22 -49 22 -60 q 47 -7 22 -28 q 2 44 13 8 q 0 60 0 52 q 12 98 0 81 q 71 127 34 127 q 117 113 94 127 q 147 70 139 98 l 147 68 q 149 52 149 60 q 137 16 149 33 q 79 -56 116 -26 q 45 -72 59 -72 z "},"":{"ha":444,"x_min":0,"x_max":329,"o":"m 258 721 q 212 736 235 721 q 182 779 190 751 q 180 796 180 788 q 192 833 180 815 q 251 905 213 875 q 283 920 271 920 q 297 916 291 920 q 307 897 307 908 q 294 867 307 881 l 281 856 q 327 804 316 840 q 329 788 329 796 q 317 750 329 768 q 258 721 295 721 m 79 721 q 33 736 55 721 q 2 779 10 751 q 0 796 0 788 q 12 833 0 815 q 71 905 33 875 q 104 920 91 920 q 117 916 111 920 q 128 897 128 908 q 114 867 128 882 l 102 856 q 147 804 136 840 q 149 788 149 796 q 137 750 149 768 q 79 721 116 721 z "},"":{"ha":444,"x_min":0,"x_max":328,"o":"m 45 715 q 31 719 37 715 q 21 737 21 726 q 35 767 21 753 l 39 771 l 47 779 q 2 830 12 794 q 0 848 0 839 q 12 884 0 867 q 70 913 33 913 q 117 899 94 913 q 146 857 139 884 q 149 840 149 852 q 136 802 149 819 q 78 730 116 761 q 45 715 60 715 m 224 715 q 211 719 217 715 q 201 737 201 726 q 215 767 201 753 q 227 779 218 771 q 181 830 192 794 q 179 846 179 839 q 191 884 179 867 q 250 913 213 913 q 296 899 274 913 q 326 857 319 884 q 328 840 328 852 q 316 802 328 819 q 258 730 296 761 q 224 715 240 715 z "},"":{"ha":444,"x_min":0,"x_max":328,"o":"m 45 -68 q 31 -64 39 -68 q 21 -45 21 -56 q 35 -16 21 -30 l 47 -3 q 2 47 12 12 q 0 65 0 56 q 12 102 0 85 q 70 131 33 131 q 117 116 94 131 q 146 73 139 102 l 147 73 q 149 57 149 64 q 137 19 149 37 q 78 -52 113 -25 q 45 -68 60 -68 m 225 -68 q 211 -64 218 -68 q 201 -45 201 -56 q 215 -16 201 -30 l 218 -12 l 227 -3 q 182 47 192 12 q 180 65 180 56 q 191 102 180 85 q 250 131 213 131 q 296 116 273 131 q 326 73 319 102 l 327 73 q 328 57 328 64 q 317 19 328 37 q 258 -52 292 -25 q 225 -68 239 -68 z "},"":{"ha":517,"x_min":0,"x_max":517,"o":"m 299 12 q 144 73 220 12 q 45 277 61 146 l 32 277 q 9 287 18 278 q 0 309 1 296 q 10 332 1 323 q 32 341 19 341 l 41 341 l 41 357 l 42 387 l 32 388 q 9 397 18 388 q 0 420 1 406 q 10 442 1 433 q 33 452 19 451 l 50 451 q 82 570 60 514 q 340 774 170 774 q 438 747 402 774 q 488 640 488 709 q 471 593 488 603 q 456 589 464 589 q 416 603 450 589 q 397 633 397 611 l 397 641 q 380 669 397 660 q 351 675 368 675 q 294 658 314 675 q 214 451 235 590 l 346 450 q 368 441 359 450 q 378 418 377 432 q 368 396 377 405 q 346 387 359 387 l 206 387 q 205 340 205 363 l 346 340 q 368 331 359 340 q 378 309 377 322 q 368 286 377 295 q 346 277 359 277 l 206 277 q 246 138 212 186 q 266 123 251 130 q 296 116 278 116 q 315 117 300 116 q 366 139 330 118 q 429 212 417 180 q 440 228 432 222 q 456 233 448 233 l 491 229 q 513 215 505 227 q 517 198 517 208 l 517 189 q 380 28 482 77 q 299 12 340 12 z "},"":{"ha":513,"x_min":0,"x_max":513,"o":"m 64 135 l 55 135 q 36 148 47 136 q 24 175 24 159 q 37 204 24 192 l 108 272 q 96 360 96 308 q 114 471 96 421 l 16 543 q 0 575 0 555 q 7 598 0 587 q 41 614 20 614 q 62 606 52 614 l 154 541 q 262 597 202 597 q 305 591 283 597 q 381 534 355 574 l 449 587 q 475 596 461 596 q 485 595 476 596 q 504 582 494 594 q 513 555 513 569 q 512 545 513 553 q 498 525 511 536 l 412 458 q 419 391 419 424 q 399 275 418 331 l 490 209 q 507 178 507 197 q 498 153 507 165 q 466 137 486 137 q 443 144 454 137 l 362 203 q 264 146 325 151 q 152 194 202 146 l 147 199 l 90 146 q 64 135 79 135 m 283 224 q 304 234 294 224 l 304 233 q 353 353 340 274 q 355 391 355 372 q 313 514 355 475 q 296 519 305 519 q 279 515 288 519 q 234 459 252 499 q 214 375 215 419 q 233 276 214 317 q 275 225 252 236 q 283 224 279 224 z "},"":{"ha":498,"x_min":0,"x_max":389,"o":"m 41 336 q 2 383 16 336 q 0 401 0 393 q 7 428 0 416 q 36 446 18 446 l 353 430 q 377 418 369 429 q 389 384 385 406 l 389 377 q 381 354 389 363 q 359 345 372 345 l 41 336 z "},"":{"ha":406,"x_min":0,"x_max":389,"o":"m 233 201 q 207 210 220 201 q 21 350 203 212 q 0 391 1 366 q 20 433 0 417 l 194 572 q 232 585 211 585 q 283 557 260 585 q 298 519 297 541 q 282 482 298 497 q 134 384 277 477 l 248 296 q 272 274 263 285 l 283 257 l 278 237 q 264 214 273 221 q 233 201 250 201 m 41 -102 q 2 -56 16 -102 q 0 -37 0 -45 q 7 -11 0 -22 q 36 7 18 7 l 353 -9 q 377 -21 369 -9 q 389 -55 385 -33 l 389 -62 q 381 -84 389 -75 q 359 -94 372 -94 l 41 -102 z "},"":{"ha":406,"x_min":0,"x_max":389,"o":"m 64 201 q 34 214 48 201 q 20 237 24 221 l 14 257 l 26 274 q 50 296 35 285 l 51 297 l 163 384 l 16 482 q 0 519 0 497 q 14 557 1 541 q 67 585 37 585 q 79 585 68 585 q 104 572 89 585 l 278 433 q 298 391 298 417 q 277 350 297 366 q 91 210 93 211 q 64 201 78 201 m 41 -102 q 2 -56 16 -102 q 0 -37 0 -45 q 7 -11 0 -22 q 36 7 18 7 l 353 -9 q 377 -21 369 -9 q 389 -55 385 -33 l 389 -62 q 381 -84 389 -75 q 359 -94 372 -94 l 41 -102 z "},"":{"ha":632,"x_min":0,"x_max":604,"o":"m 298 -21 q 218 1 257 -21 q 138 91 166 30 q 132 117 132 104 q 142 149 132 130 q 180 174 151 167 q 198 176 189 176 q 252 142 233 176 q 303 104 271 104 q 360 134 334 104 q 437 503 437 232 l 437 532 q 365 388 408 459 q 201 296 306 302 q 64 361 119 296 q 0 593 0 446 q 9 718 0 663 q 17 763 16 760 q 41 802 24 787 l 41 800 q 72 823 50 812 q 107 829 87 829 q 178 798 154 829 q 192 753 192 777 q 191 740 192 747 q 176 591 176 661 q 188 481 176 535 q 205 446 195 452 q 228 439 212 439 q 245 442 237 439 q 264 463 252 446 q 342 635 302 526 q 395 758 371 711 q 456 823 420 805 q 484 829 477 829 l 519 828 q 572 807 550 827 q 598 755 594 787 q 604 637 604 701 q 589 347 604 500 q 490 77 575 179 q 384 -3 446 26 q 298 -21 344 -21 m 239 876 q 196 893 212 876 q 180 938 180 910 q 198 984 181 967 q 240 1000 216 1000 q 285 984 269 1000 q 301 943 301 969 q 280 892 300 912 q 239 876 263 876 m 385 876 q 341 893 357 876 q 326 938 326 910 q 343 984 326 967 q 385 1000 360 1000 q 430 984 414 1000 q 446 943 446 969 q 425 892 446 912 q 385 876 408 876 z "},"":{"ha":616,"x_min":0,"x_max":911,"o":"m 268 106 q 372 174 338 116 q 414 283 405 232 q 423 391 423 338 q 399 549 423 460 q 309 677 376 639 l 300 680 l 299 681 q 281 677 288 680 q 212 574 241 653 q 177 369 177 481 q 198 207 177 272 q 268 106 225 123 m 478 104 q 271 -24 406 -12 l 262 -24 q 100 53 178 -24 q 24 189 56 96 q 0 355 0 254 q 170 778 0 655 q 280 814 224 814 q 366 793 322 814 q 481 677 437 752 l 481 703 q 492 764 481 742 q 508 785 497 775 q 531 802 519 794 q 551 814 543 809 l 560 818 q 631 826 564 821 q 692 828 656 828 q 823 823 747 828 q 871 798 853 819 q 886 755 886 779 l 886 745 q 863 703 882 718 q 827 691 849 691 q 814 692 821 691 q 712 701 758 701 q 649 691 673 701 q 645 474 646 616 l 771 474 q 821 454 800 474 q 841 406 841 435 q 821 358 841 378 q 771 338 800 338 l 644 338 q 640 106 642 205 q 682 106 659 106 q 834 114 752 106 l 842 115 q 886 100 865 115 q 911 57 906 85 q 911 47 911 52 q 896 4 911 24 q 850 -20 880 -16 q 681 -30 762 -30 q 593 -27 625 -30 q 558 -23 561 -24 l 536 -14 q 504 7 515 -3 q 477 70 477 33 q 478 104 477 87 z "},"":{"ha":461,"x_min":0,"x_max":765,"o":"m 312 254 q 315 302 315 278 q 301 408 315 351 q 252 500 288 465 l 252 478 q 261 371 252 433 q 312 254 271 309 m 530 348 q 634 409 591 366 q 663 469 663 439 q 653 496 663 488 q 641 499 648 499 q 623 496 635 499 q 589 469 611 494 q 530 348 551 422 m 222 100 q 286 161 264 113 q 169 427 180 251 q 146 301 146 366 q 163 177 146 227 q 201 110 179 128 q 222 100 212 100 m 372 106 q 334 54 355 77 q 205 -5 281 -1 l 199 -5 q 76 52 135 -5 q 18 153 43 83 q 0 279 0 203 q 127 595 0 503 q 212 622 169 622 q 277 606 243 622 q 370 508 336 574 q 385 475 378 492 q 455 566 414 530 q 591 618 515 618 l 606 618 q 715 577 673 611 q 764 471 764 537 q 654 295 764 369 q 588 261 626 277 q 513 241 551 245 l 513 224 q 535 123 513 162 q 574 100 549 100 q 596 103 584 100 q 675 173 634 121 q 714 192 690 192 q 745 182 730 192 q 765 141 765 166 q 754 110 765 125 q 703 55 732 81 q 640 12 675 29 q 562 -6 605 -6 q 450 27 508 -6 q 372 106 399 56 z "},"":{"ha":436,"x_min":0,"x_max":390,"o":"m 177 -4 q 104 8 139 -4 q 0 153 9 47 l 0 156 q 19 199 0 182 q 57 213 35 213 l 67 212 q 116 160 111 201 q 178 108 120 108 q 220 119 201 108 q 234 131 231 126 q 237 142 237 136 q 221 173 237 155 q 161 224 204 192 l 144 236 q 53 321 94 273 q 6 436 13 370 l 5 447 q 36 545 5 500 q 125 612 66 590 q 188 623 157 623 q 239 616 206 623 q 306 571 272 608 q 340 508 340 536 q 329 477 340 492 q 281 454 312 454 q 230 482 247 454 q 219 497 226 490 q 210 498 215 498 q 180 490 191 498 q 173 468 173 481 q 177 452 173 459 q 216 403 193 426 q 283 340 239 380 q 344 278 312 316 q 388 192 376 241 q 390 170 390 181 q 362 85 390 130 q 304 31 340 53 q 215 -1 267 9 l 215 -1 q 177 -4 196 -4 m 255 863 q 295 835 278 863 l 298 830 q 302 811 302 821 q 294 787 302 798 l 212 673 q 194 664 205 664 q 174 676 180 664 l 105 807 q 101 823 101 815 q 108 842 101 833 q 134 856 118 856 q 140 855 136 856 q 170 834 163 850 l 195 783 l 231 851 q 255 863 241 863 z "},"":{"ha":516,"x_min":0,"x_max":465,"o":"m 192 -1 q 26 33 68 -1 q 0 89 0 55 q 6 122 0 99 q 143 342 22 184 q 277 503 228 453 l 269 503 q 254 503 263 503 l 254 505 q 106 495 173 501 l 102 495 q 69 507 83 495 q 52 545 52 522 q 64 578 52 564 q 98 596 76 593 q 301 606 214 606 q 397 602 355 606 q 458 552 438 595 q 465 517 465 534 q 450 472 465 493 q 336 341 404 412 q 231 223 283 286 q 161 113 178 160 q 240 106 190 106 q 357 113 289 106 l 363 113 q 394 102 380 113 q 413 62 413 87 q 401 30 413 45 q 368 12 390 15 q 192 -1 266 -1 m 347 863 q 387 835 370 863 l 389 830 q 393 811 393 821 q 385 787 393 798 l 304 673 q 286 664 296 664 q 265 676 272 664 l 197 807 q 193 823 193 815 q 199 842 193 833 q 225 856 210 856 q 231 855 228 856 q 261 834 255 850 l 287 783 l 322 851 q 347 863 332 863 z "},"":{"ha":500,"x_min":0,"x_max":453,"o":"m 204 -18 q 63 33 123 -18 q 0 199 0 100 l 1 218 q 31 270 3 253 q 63 279 45 279 q 90 273 75 279 q 129 212 128 254 l 128 202 q 133 161 128 182 q 203 114 144 114 q 274 133 241 114 l 275 134 l 275 135 q 293 176 293 156 q 200 312 293 231 q 31 616 31 458 q 37 675 31 646 q 125 801 58 759 q 234 831 174 831 q 311 812 275 831 q 412 628 402 757 q 385 575 410 593 q 350 564 369 564 l 347 564 q 322 570 335 564 q 283 627 286 586 q 247 698 279 677 q 229 703 238 703 q 198 684 214 703 q 180 650 186 671 q 178 635 178 644 q 186 607 178 622 q 309 458 227 537 q 391 372 347 420 q 453 218 453 299 q 423 103 453 163 q 248 -15 369 9 q 204 -18 225 -18 m 309 1061 q 349 1033 332 1061 l 352 1028 q 356 1009 356 1019 q 348 985 356 996 l 267 871 q 248 862 259 862 q 228 874 235 862 l 159 1005 q 155 1021 155 1013 q 162 1040 155 1031 q 188 1054 172 1054 q 194 1053 191 1054 q 224 1032 218 1048 l 250 981 l 285 1049 q 309 1061 295 1061 z "}}}
